<svg width="24" height="24" viewBox="0 0 24 24" fill="none" xmlns="http://www.w3.org/2000/svg">
<path d="M20.3299 4.22266H3.67014C2.74653 4.22266 2 4.96918 2 5.88932V18.1115C2 19.0317 2.74653 19.7782 3.67014 19.7782H20.3299C21.2535 19.7782 22 19.0317 22 18.1115V5.88932C22 4.96918 21.2535 4.22266 20.3299 4.22266ZM3.87847 5.88932H20.1215C20.2361 5.88932 20.3299 5.98307 20.3299 6.09766V7.55599H3.67014V6.09766C3.67014 5.98307 3.76389 5.88932 3.87847 5.88932ZM20.1215 18.1115H3.87847C3.76389 18.1115 3.67014 18.0178 3.67014 17.9032V12.0004H20.3299V17.9032C20.3299 18.0178 20.2361 18.1115 20.1215 18.1115ZM8.66667 14.6393V16.0282C8.66667 16.2574 8.47917 16.4449 8.25 16.4449H5.75C5.52083 16.4449 5.33333 16.2574 5.33333 16.0282V14.6393C5.33333 14.4102 5.52083 14.2227 5.75 14.2227H8.25C8.47917 14.2227 8.66667 14.4102 8.66667 14.6393ZM15.3333 14.6393V16.0282C15.3333 16.2574 15.1458 16.4449 14.9167 16.4449H10.1944C9.96528 16.4449 9.77778 16.2574 9.77778 16.0282V14.6393C9.77778 14.4102 9.96528 14.2227 10.1944 14.2227H14.9167C15.1458 14.2227 15.3333 14.4102 15.3333 14.6393Z" fill="black"/>
</svg>
