<svg width="20" height="20" viewBox="0 0 20 20" fill="none" xmlns="http://www.w3.org/2000/svg">
<path d="M17.9967 4.66439L10.3672 1.73242C10.1314 1.64388 9.87152 1.64388 9.63574 1.73242L2.00586 4.66439C1.90661 4.70163 1.82108 4.76826 1.76071 4.8554C1.70033 4.94253 1.66798 5.04601 1.66797 5.15202V6.35352C1.66797 6.64128 1.90104 6.87435 2.1888 6.87435H17.8138C18.1016 6.87435 18.3346 6.64128 18.3346 6.35352V5.15202C18.3346 4.9349 18.1999 4.74056 17.9967 4.66439ZM3.7513 7.91602V13.1243H3.23047C2.94271 13.1243 2.70964 13.3574 2.70964 13.6452V15.2077H17.293V13.6452C17.293 13.3574 17.0599 13.1243 16.7721 13.1243H16.2513V7.91602H14.168V13.1243H11.043V7.91602H8.95964V13.1243H5.83464V7.91602H3.7513ZM17.8138 16.2493H2.1888C1.90104 16.2493 1.66797 16.4824 1.66797 16.7702V17.8118C1.66797 18.0996 1.90104 18.3327 2.1888 18.3327H17.8138C18.1016 18.3327 18.3346 18.0996 18.3346 17.8118V16.7702C18.3346 16.4824 18.1016 16.2493 17.8138 16.2493Z" fill="black"/>
</svg>
