<svg width="20" height="20" viewBox="0 0 20 20" fill="none" xmlns="http://www.w3.org/2000/svg">
<path d="M7.03636 11.4639C6.90773 12.1695 6.39689 15.4587 6.24621 16.3885C6.23519 16.4547 6.20946 16.4804 6.13596 16.4804H3.39432C3.11501 16.4804 2.91288 16.2379 2.94963 15.9696L5.10325 2.30182C5.15838 1.94901 5.47444 1.68072 5.83827 1.68072C11.4355 1.68072 11.9059 1.54474 13.3355 2.09969C15.5443 2.95599 15.7464 5.02141 14.9526 7.25588C14.1624 9.5565 12.2881 10.5451 9.80372 10.5745C8.20872 10.6002 7.24952 10.3173 7.03636 11.4639ZM16.0661 6.17539C16 6.12762 15.9742 6.10924 15.9559 6.22317C15.8824 6.64213 15.7684 7.05007 15.6325 7.45801C14.1661 11.6403 10.1014 11.2765 8.11685 11.2765C7.89266 11.2765 7.74566 11.3977 7.71626 11.6219C6.88568 16.7818 6.7203 17.8586 6.7203 17.8586C6.68355 18.1195 6.84893 18.3327 7.10986 18.3327H9.44356C9.75962 18.3327 10.0206 18.1012 10.083 17.7851C10.1088 17.5866 10.0426 18.0093 10.6122 14.4297C10.7813 13.6212 11.1378 13.7057 11.6891 13.7057C14.2984 13.7057 16.3344 12.6473 16.9408 9.57855C17.1797 8.29961 17.1099 6.95452 16.0661 6.17539Z" fill="black"/>
</svg>
