<?xml version="1.0" encoding="utf-8" ?>
<svg xmlns="http://www.w3.org/2000/svg" xmlns:xlink="http://www.w3.org/1999/xlink" width="400" height="340">
	<path fill="#EDEEEE" transform="matrix(0.59365 0 0 0.593356 -6.10352e-05 6.10352e-05)" d="M1067.07 743.249C1067.95 743.372 1068.84 743.478 1069.71 743.616C1079.62 745.183 1086.39 755.104 1091.74 761.639C1091.92 766.55 1093.1 772.581 1089.62 776.752C1085.36 779.125 1080.99 778.699 1076.1 778.711C1075.67 778.649 1075.23 778.604 1074.8 778.525C1064.51 776.631 1059.62 768.19 1054.36 761.246L1072.77 756.051L1067.07 743.249Z"/>
	<path fill="#EDEEEE" transform="matrix(0.59365 0 0 0.593356 -6.10352e-05 6.10352e-05)" d="M1759.57 735.935C1763.08 740.549 1756.45 746.339 1756.64 751.614L1759.01 753.353C1765.11 754.713 1770.13 754.041 1776.26 753.384C1770.76 761.154 1765.22 768.854 1759.24 776.365C1752.25 776.674 1745.22 776.279 1738.23 776.056C1737.84 768.584 1738.18 761.098 1738.37 753.624C1744.72 746.95 1751.85 741.43 1759.57 735.935Z"/>
	<path fill="#EDEEEE" transform="matrix(0.59365 0 0 0.593356 -6.10352e-05 6.10352e-05)" d="M2744.55 844.912C2748.24 849.741 2749.78 858.212 2751.62 863.899L2771.62 863.901L2755.18 876.696L2761.52 896.958L2745.04 884.422L2728.56 896.819Q2731.63 886.71 2734.9 876.647L2718.35 863.903L2738.81 863.9L2744.55 844.912Z"/>
	<path fill="#EDEEEE" transform="matrix(0.59365 0 0 0.593356 -6.10352e-05 6.10352e-05)" d="M2689.55 844.757C2693.24 850.172 2694.46 857.82 2696.26 863.901L2716.68 863.901L2700.36 876.49L2706.48 896.864L2690.34 884.749C2684.97 886.71 2677.95 893.558 2673.44 897.039L2679.7 876.608L2663.23 863.901L2683.45 863.901L2689.55 844.757Z"/>
	<path fill="#EDEEEE" transform="matrix(0.59365 0 0 0.593356 -6.10352e-05 6.10352e-05)" d="M2135.56 844.934C2139.24 849.664 2140.78 858.282 2142.58 863.9L2162.71 863.901L2146.2 876.689L2152.49 896.9L2136.1 884.412L2119.42 896.925L2125.89 876.603L2109.38 863.904L2129.83 863.9L2135.56 844.934Z"/>
	<path fill="#EDEEEE" transform="matrix(0.59365 0 0 0.593356 -6.10352e-05 6.10352e-05)" d="M2359.65 844.748C2363.01 850.626 2364.35 857.572 2366.2 863.901L2386.61 863.901L2370.41 876.322L2376.46 896.818L2359.9 884.556L2343.53 896.884L2349.73 876.588L2333.27 863.901L2353.43 863.9L2359.65 844.748Z"/>
	<path fill="#EDEEEE" transform="matrix(0.59365 0 0 0.593356 -6.10352e-05 6.10352e-05)" d="M2080.52 844.797C2084.21 849.607 2085.6 858.219 2087.31 863.901L2107.69 863.901L2091.33 876.552L2097.52 896.907L2081.3 884.697C2075.73 887.011 2069.15 893.418 2064.42 897.069L2070.69 876.598L2054.25 863.901L2074.53 863.901L2080.52 844.797Z"/>
	<path fill="#EDEEEE" transform="matrix(0.59365 0 0 0.593356 -6.10352e-05 6.10352e-05)" d="M2414.51 844.832C2418.24 849.35 2419.71 858.404 2421.39 863.901L2441.7 863.901L2425.32 876.606L2431.59 897.084L2415.02 884.424L2398.47 896.917Q2401.54 886.798 2404.93 876.754L2388.26 863.901L2408.63 863.901L2414.51 844.832Z"/>
	<path fill="#EDEEEE" transform="matrix(0.59365 0 0 0.593356 -6.10352e-05 6.10352e-05)" d="M177.25 1311.67C181.467 1314.97 182.914 1325.08 184.299 1329.86L204.66 1329.92L188.157 1342.59L194.828 1363.37L178.833 1350.92C173.418 1352.09 165.438 1360.04 161.11 1363.51L167.866 1342.62L151.179 1329.86L171.559 1329.86L177.25 1311.67Z"/>
	<path fill="#EDEEEE" transform="matrix(0.59365 0 0 0.593356 -6.10352e-05 6.10352e-05)" d="M2469.56 844.952C2473.28 849.814 2474.75 858.172 2476.55 863.9L2496.75 863.901L2480.24 876.658L2486.45 896.854L2470.14 884.401L2453.38 896.947L2459.64 876.315C2454.14 872.273 2448.8 868.039 2443.4 863.906L2463.82 863.9L2469.56 844.952Z"/>
	<path fill="#EDEEEE" transform="matrix(0.59365 0 0 0.593356 -6.10352e-05 6.10352e-05)" d="M2245.53 845.129C2249.39 848.676 2250.94 859.092 2252.38 863.9L2272.61 863.901L2256.21 876.592Q2259.4 886.379 2262.1 896.271C2257.02 893.045 2252.28 889.114 2247.47 885.581L2247.04 885.362C2242.53 885.565 2233.15 894.154 2229.33 897.03L2235.83 876.656L2219.33 863.912L2239.68 863.899L2245.53 845.129Z"/>
	<path fill="#EDEEEE" transform="matrix(0.59365 0 0 0.593356 -6.10352e-05 6.10352e-05)" d="M452.291 1311.68C456.477 1315 457.992 1325.1 459.432 1329.86L479.807 1329.86L463.133 1342.61L469.922 1363.52L453.001 1350.18L436.11 1363.46L442.859 1342.6L426.339 1329.97L446.68 1329.86L452.291 1311.68Z"/>
	<path fill="#EDEEEE" transform="matrix(0.59365 0 0 0.593356 -6.10352e-05 6.10352e-05)" d="M2025.67 844.757C2029.01 850.623 2030.36 857.593 2032.23 863.901L2052.59 863.901C2047.25 868.093 2041.78 872.173 2036.37 876.299L2042.42 896.776L2025.92 884.547L2009.57 896.828L2015.71 876.559L1999.24 863.901L2019.46 863.9L2025.67 844.757Z"/>
	<path fill="#EDEEEE" transform="matrix(0.59365 0 0 0.593356 -6.10352e-05 6.10352e-05)" d="M2190.52 845.039C2194.17 848.796 2195.98 859.042 2197.48 863.9L2217.73 863.901L2201.21 876.709L2207.57 896.899C2201.98 892.857 2196.61 888.534 2191.16 884.356L2174.65 896.619L2180.7 876.434L2164.4 863.908L2184.76 863.9L2190.52 845.039Z"/>
	<path fill="#EDEEEE" transform="matrix(0.59365 0 0 0.593356 -6.10352e-05 6.10352e-05)" d="M786.272 1311.68C790.479 1314.98 791.92 1325.09 793.322 1329.86L813.648 1329.92L797.138 1342.6L803.887 1363.45L787.858 1350.95C782.75 1351.96 774.27 1360.24 770.079 1363.53L776.869 1342.61L760.189 1329.86L780.574 1329.86L786.272 1311.68Z"/>
	<path fill="#EDEEEE" transform="matrix(0.59365 0 0 0.593356 -6.10352e-05 6.10352e-05)" d="M2524.5 845.06C2528.34 849.422 2529.76 858.477 2531.38 863.899L2551.69 863.901L2535.19 876.693L2541.63 896.947L2525.14 884.35L2508.75 896.511L2514.72 876.477L2498.38 863.909L2518.75 863.9L2524.5 845.06Z"/>
	<path fill="#EDEEEE" transform="matrix(0.59365 0 0 0.593356 -6.10352e-05 6.10352e-05)" d="M2579.65 844.714C2583 850.546 2584.43 857.62 2586.36 863.9L2606.59 863.901L2590.26 876.532Q2593.36 886.373 2596.1 896.288C2590.8 892.863 2585.78 888.735 2580.74 885.02C2576.54 885.607 2566.99 894.266 2563.34 897.005L2569.83 876.676L2553.31 863.912L2573.66 863.899L2579.65 844.714Z"/>
	<path fill="#EDEEEE" transform="matrix(0.59365 0 0 0.593356 -6.10352e-05 6.10352e-05)" d="M1915.5 845.089C1919.12 848.608 1921.01 859.218 1922.45 863.9L1942.66 863.901L1926.18 876.689L1932.65 896.988L1916.11 884.343L1899.83 896.413C1901.65 889.756 1903.75 883.138 1905.73 876.515L1889.37 863.909L1909.74 863.9L1915.5 845.089Z"/>
	<path fill="#EDEEEE" transform="matrix(0.59365 0 0 0.593356 -6.10352e-05 6.10352e-05)" d="M1970.74 844.757C1973.98 850.631 1975.42 857.621 1977.35 863.9L1997.59 863.901L1981.27 876.492C1983.38 883.074 1985.21 889.734 1987.13 896.358L1971.69 885.021C1967.49 885.626 1958 894.235 1954.36 896.967L1960.81 876.692L1944.3 863.913L1964.63 863.899L1970.74 844.757Z"/>
	<path fill="#EDEEEE" transform="matrix(0.59365 0 0 0.593356 -6.10352e-05 6.10352e-05)" d="M2300.75 844.774C2303.99 850.614 2305.39 857.643 2307.28 863.9L2327.56 863.901L2311.37 876.335L2317.49 896.791L2300.97 884.55C2295.3 888.089 2289.89 892.808 2284.58 896.784L2290.64 876.625L2274.28 863.901L2294.54 863.899L2300.75 844.774Z"/>
	<path fill="#EDEEEE" transform="matrix(0.59365 0 0 0.593356 -6.10352e-05 6.10352e-05)" d="M2634.71 844.765C2638.01 850.567 2639.38 857.654 2641.26 863.9L2661.58 863.901L2645.39 876.297L2651.55 896.87L2634.94 884.553L2618.6 896.782L2624.69 876.601L2608.25 863.901L2628.51 863.899L2634.71 844.765Z"/>
	<path fill="#EDEEEE" transform="matrix(0.59365 0 0 0.593356 -6.10352e-05 6.10352e-05)" d="M452.605 844.013C456.405 849.132 457.575 856.969 459.316 862.855L479.747 862.856L463.15 875.624L469.777 896.293L453.108 883.441C447.227 887.128 441.721 892.083 436.25 896.254L442.84 875.595L426.273 862.858L446.704 862.855L452.605 844.013Z"/>
	<path fill="#EDEEEE" transform="matrix(0.59365 0 0 0.593356 -6.10352e-05 6.10352e-05)" d="M787.065 843.729C789.714 849.835 791.337 856.548 793.301 862.855L813.728 862.856L797.159 875.593L803.756 896.26L786.936 883.264L770.221 896.298L776.848 875.625L760.25 862.858L780.682 862.855C782.547 856.386 784.69 850.076 787.065 843.729Z"/>
	<path fill="#EDEEEE" transform="matrix(0.59365 0 0 0.593356 -6.10352e-05 6.10352e-05)" d="M2246.18 1311.71C2248.65 1317.88 2250.31 1324.53 2252.29 1330.84L2272.74 1330.84L2256.13 1343.57L2262.79 1364.34L2245.94 1351.23L2229.14 1364.47L2235.88 1343.59L2219.24 1330.85L2239.67 1330.84C2241.57 1324.35 2243.61 1318.04 2246.18 1311.71Z"/>
	<path fill="#EDEEEE" transform="matrix(0.59365 0 0 0.593356 -6.10352e-05 6.10352e-05)" d="M731.584 843.887C735.249 848.55 736.746 857.277 738.492 862.856L758.896 862.86L742.219 875.674L748.6 896.146L732.137 883.287L715.679 895.634L721.797 875.436L705.333 862.858L725.778 862.856L731.584 843.887Z"/>
	<path fill="#EDEEEE" transform="matrix(0.59365 0 0 0.593356 -6.10352e-05 6.10352e-05)" d="M122.591 843.914C126.241 848.486 127.756 857.346 129.483 862.856L149.853 862.859L133.198 875.664L139.706 896.227L123.122 883.281L106.659 895.755L112.794 875.456L96.3223 862.859L116.761 862.855L122.591 843.914Z"/>
	<path fill="#EDEEEE" transform="matrix(0.59365 0 0 0.593356 -6.10352e-05 6.10352e-05)" d="M511.942 843.684C514.822 849.751 516.341 856.519 518.263 862.855L538.69 862.858L522.215 875.488C524.437 882.153 526.272 888.943 528.249 895.666L512.742 883.956C508.1 884.784 499.142 893.263 495.236 896.273L501.818 875.654L485.19 862.859L505.632 862.855Q508.548 853.213 511.942 843.684Z"/>
	<path fill="#EDEEEE" transform="matrix(0.59365 0 0 0.593356 -6.10352e-05 6.10352e-05)" d="M397.593 843.864C401.255 848.637 402.735 857.204 404.506 862.856L424.946 862.86L408.383 875.568L414.502 896.072L398.063 883.294L381.404 895.981L387.792 875.411C382.208 871.342 376.809 867.041 371.34 862.858L391.788 862.856L397.593 843.864Z"/>
	<path fill="#EDEEEE" transform="matrix(0.59365 0 0 0.593356 -6.10352e-05 6.10352e-05)" d="M896.725 1310.42C899.959 1316.35 901.319 1323.51 903.198 1329.86L924.26 1329.86C918.396 1333.91 912.858 1338.37 907.228 1342.65L913.514 1362.92L896.974 1350.36L880.47 1363.07L886.771 1342.61C881.273 1338.22 875.47 1334.08 869.792 1329.86L890.359 1329.86C892.705 1323.45 894.632 1316.89 896.725 1310.42Z"/>
	<path fill="#EDEEEE" transform="matrix(0.59365 0 0 0.593356 -6.10352e-05 6.10352e-05)" d="M841.849 843.66C844.887 849.639 846.32 856.541 848.211 862.856L868.66 862.858L852.218 875.419L858.427 895.744L841.935 883.438L825.507 896.062L831.648 875.525L815.055 862.86L835.545 862.855L841.849 843.66Z"/>
	<path fill="#EDEEEE" transform="matrix(0.59365 0 0 0.593356 -6.10352e-05 6.10352e-05)" d="M342.655 1310.54C346.21 1315.9 347.695 1323.84 349.649 1329.86L370.184 1329.86C364.397 1333.98 358.846 1338.35 353.228 1342.63L359.529 1363.07L342.917 1350.42L326.221 1363.18L332.77 1342.65C327.254 1338.24 321.469 1334.08 315.754 1329.86L336.795 1329.86L342.655 1310.54Z"/>
	<path fill="#EDEEEE" transform="matrix(0.59365 0 0 0.593356 -6.10352e-05 6.10352e-05)" d="M676.663 1310.57C680.228 1315.8 681.714 1323.91 683.645 1329.86L704.13 1329.86Q695.64 1336.2 687.232 1342.61L693.471 1363.02L676.953 1350.39L660.169 1363.21L666.755 1342.63Q658.371 1336.19 649.868 1329.86L670.836 1329.86C672.667 1323.41 674.711 1316.99 676.663 1310.57Z"/>
	<path fill="#EDEEEE" transform="matrix(0.59365 0 0 0.593356 -6.10352e-05 6.10352e-05)" d="M177.947 843.683C180.844 849.642 182.354 856.592 184.276 862.855L204.707 862.858L188.179 875.545C190.398 882.185 192.272 888.895 194.186 895.602L178.785 883.964C174.157 884.751 165.111 893.304 161.214 896.308L167.837 875.643L151.223 862.858L171.66 862.855C173.545 856.411 175.749 850.055 177.947 843.683Z"/>
	<path fill="#EDEEEE" transform="matrix(0.59365 0 0 0.593356 -6.10352e-05 6.10352e-05)" d="M67.6598 1310.59C71.2404 1315.56 72.7855 1324.13 74.6217 1329.86L95.0786 1329.86L78.2419 1342.59L84.6011 1363.12L67.9847 1350.35L51.1155 1363.24C53.5079 1356.41 55.5304 1349.46 57.7215 1342.59L40.9882 1329.86L61.8409 1329.86C63.6405 1323.41 65.7135 1317.01 67.6598 1310.59Z"/>
	<path fill="#EDEEEE" transform="matrix(0.59365 0 0 0.593356 -6.10352e-05 6.10352e-05)" d="M731.706 1310.7C735.231 1315.75 736.683 1324.06 738.496 1329.86L758.904 1329.86L742.237 1342.66L748.609 1363.14L732.055 1350.2L715.54 1362.89L721.708 1342.53L705.317 1329.86L725.765 1329.86L731.706 1310.7Z"/>
	<path fill="#EDEEEE" transform="matrix(0.59365 0 0 0.593356 -6.10352e-05 6.10352e-05)" d="M232.791 843.643C235.918 849.573 237.318 856.553 239.199 862.856L259.675 862.858L243.22 875.402L249.498 895.83L233.567 883.927C228.717 884.981 220.496 892.945 216.534 896.057L222.684 875.567C217.194 871.26 211.53 867.087 205.958 862.856L226.478 862.856L232.791 843.643Z"/>
	<path fill="#EDEEEE" transform="matrix(0.59365 0 0 0.593356 -6.10352e-05 6.10352e-05)" d="M287.68 1310.4C291.004 1316.06 292.39 1323.67 294.248 1329.86L315.36 1329.86C309.419 1333.88 303.861 1338.36 298.211 1342.67L304.482 1362.92L287.953 1350.37L271.44 1363.1L277.766 1342.63C272.286 1338.2 266.445 1334.07 260.733 1329.86L281.433 1329.86C283.681 1323.42 285.606 1316.88 287.68 1310.4Z"/>
	<path fill="#EDEEEE" transform="matrix(0.59365 0 0 0.593356 -6.10352e-05 6.10352e-05)" d="M566.745 843.63C569.911 849.618 571.316 856.496 573.194 862.856L593.699 862.858L577.218 875.443L583.571 895.936L567.528 883.923C562.657 885.041 554.498 892.959 550.512 896.091L556.726 875.55L539.928 862.856L560.429 862.856L566.745 843.63Z"/>
	<path fill="#EDEEEE" transform="matrix(0.59365 0 0 0.593356 -6.10352e-05 6.10352e-05)" d="M676.602 843.778C680.319 848.655 681.81 857.145 683.63 862.856L704.082 862.856C698.377 866.995 692.848 871.346 687.255 875.596L693.449 895.934L676.943 883.459L660.226 896.211L666.71 875.505L650.221 862.857L670.832 862.856L676.602 843.778Z"/>
	<path fill="#EDEEEE" transform="matrix(0.59365 0 0 0.593356 -6.10352e-05 6.10352e-05)" d="M397.683 1310.66C401.208 1315.55 402.718 1324.18 404.518 1329.86L424.946 1329.86C419.242 1334.06 413.331 1338.1 408.413 1342.99L414.618 1363.12L398.079 1350.22L381.42 1362.99L387.678 1342.52L371.294 1329.86L391.79 1329.86L397.683 1310.66Z"/>
	<path fill="#EDEEEE" transform="matrix(0.59365 0 0 0.593356 -6.10352e-05 6.10352e-05)" d="M566.846 1310.46C569.782 1316.62 571.278 1323.41 573.177 1329.86L593.88 1329.86L577.306 1342.55L583.816 1363.16L566.97 1350.3L550.385 1363.12L556.745 1342.57L539.979 1329.86L560.433 1329.86L566.846 1310.46Z"/>
	<path fill="#EDEEEE" transform="matrix(0.59365 0 0 0.593356 -6.10352e-05 6.10352e-05)" d="M2190.62 1311.84C2194.26 1316.59 2195.79 1325.22 2197.59 1330.84L2217.93 1330.84L2201.21 1343.66L2207.68 1364.33L2191.02 1351.37L2174.56 1363.89L2180.81 1343.46L2164.31 1330.84L2184.77 1330.84L2190.62 1311.84Z"/>
	<path fill="#EDEEEE" transform="matrix(0.59365 0 0 0.593356 -6.10352e-05 6.10352e-05)" d="M67.6016 843.796C71.4196 848.687 72.8109 857.154 74.5957 862.856L95.0778 862.856C89.3541 867.015 83.8126 871.385 78.2104 875.663L84.4432 895.909L67.99 883.409L51.1619 896.244C53.5255 889.369 55.5288 882.371 57.6968 875.447L41.2665 862.858L61.823 862.856L67.6016 843.796Z"/>
	<path fill="#EDEEEE" transform="matrix(0.59365 0 0 0.593356 -6.10352e-05 6.10352e-05)" d="M841.982 1310.5C844.745 1316.61 846.284 1323.5 848.208 1329.86L868.703 1329.86L852.221 1342.6L858.576 1362.99L841.929 1350.24L825.383 1363.12L831.638 1342.51L815.053 1329.86L835.501 1329.86Q838.596 1320.15 841.982 1310.5Z"/>
	<path fill="#EDEEEE" transform="matrix(0.59365 0 0 0.593356 -6.10352e-05 6.10352e-05)" d="M621.637 1310.4C625.038 1315.68 626.498 1323.98 628.301 1329.86L649.425 1329.86C643.416 1333.84 637.863 1338.34 632.21 1342.68L638.686 1363.15L621.94 1350.39L605.402 1363.12L611.778 1342.65C606.301 1338.19 600.437 1334.06 594.681 1329.86L615.529 1329.86L621.637 1310.4Z"/>
	<path fill="#EDEEEE" transform="matrix(0.59365 0 0 0.593356 -6.10352e-05 6.10352e-05)" d="M122.705 1310.8C126.246 1315.58 127.716 1324.24 129.465 1329.86L149.871 1329.86L133.218 1342.66C135.426 1349.33 137.274 1356.08 139.18 1362.81L123.061 1350.19L106.636 1362.81L112.753 1342.56L96.3135 1329.9L116.748 1329.86C118.581 1323.48 120.717 1317.14 122.705 1310.8Z"/>
	<path fill="#EDEEEE" transform="matrix(0.59365 0 0 0.593356 -6.10352e-05 6.10352e-05)" d="M1971.01 1311.65C1973.78 1317.7 1975.33 1324.54 1977.26 1330.84L1997.7 1330.84L1981.2 1343.47C1983.38 1350.2 1985.29 1357 1987.29 1363.76L1971.73 1351.94C1966.23 1353.32 1958.51 1360.98 1954.19 1364.43L1960.82 1343.64L1944.18 1330.84L1964.62 1330.84C1966.55 1324.38 1968.74 1318.03 1971.01 1311.65Z"/>
	<path fill="#EDEEEE" transform="matrix(0.59365 0 0 0.593356 -6.10352e-05 6.10352e-05)" d="M342.587 843.753C346.28 848.735 347.792 857.076 349.654 862.856L370.086 862.856C364.372 866.992 358.848 871.351 353.261 875.612L359.464 895.967L342.957 883.562L326.262 896.212L332.713 875.54L316.171 862.857L336.802 862.856L342.587 843.753Z"/>
	<path fill="#EDEEEE" transform="matrix(0.59365 0 0 0.593356 -6.10352e-05 6.10352e-05)" d="M2524.63 1311.87C2528.26 1316.89 2529.62 1325.04 2531.39 1330.84L2551.84 1330.84L2535.19 1343.65L2541.77 1364.41L2525.09 1351.24L2508.66 1363.8C2510.61 1357.01 2512.76 1350.24 2514.81 1343.46L2498.31 1330.84L2518.75 1330.84L2524.63 1311.87Z"/>
	<path fill="#EDEEEE" transform="matrix(0.59365 0 0 0.593356 -6.10352e-05 6.10352e-05)" d="M896.652 843.596C900.05 849.35 901.352 856.606 903.199 862.856L923.844 862.857L907.248 875.587L913.536 896.002L896.814 883.49L880.464 896.044L886.741 875.613C881.234 871.274 875.53 867.093 869.913 862.856L890.356 862.856C892.666 856.505 894.581 850.008 896.652 843.596Z"/>
	<path fill="#EDEEEE" transform="matrix(0.59365 0 0 0.593356 -6.10352e-05 6.10352e-05)" d="M232.905 1310.47C235.78 1316.61 237.278 1323.45 239.189 1329.86L259.782 1329.86L243.221 1342.61L249.722 1363.11L232.948 1350.28L216.386 1363.11L222.694 1342.57L206.011 1329.86L226.465 1329.86Q229.794 1320.19 232.905 1310.47Z"/>
	<path fill="#EDEEEE" transform="matrix(0.59365 0 0 0.593356 -6.10352e-05 6.10352e-05)" d="M511.231 1311.67C515.453 1314.96 516.908 1325.08 518.28 1329.86L538.67 1329.86L522.176 1342.63C524.45 1349.26 526.297 1356.01 528.265 1362.71L512.804 1350.9C508.655 1351.44 499.344 1360.1 495.818 1362.82C497.339 1356.05 499.774 1349.31 501.874 1342.65L485.148 1329.86L505.548 1329.86L511.231 1311.67Z"/>
	<path fill="#EDEEEE" transform="matrix(0.59365 0 0 0.593356 -6.10352e-05 6.10352e-05)" d="M287.611 843.585C291.081 848.996 292.433 856.816 294.241 862.856L314.919 862.856L298.261 875.616L304.515 896.005Q296.243 889.676 287.798 883.514L271.48 896.051L277.733 875.623C272.232 871.273 266.531 867.092 260.908 862.856L281.421 862.856C283.667 856.491 285.557 849.999 287.611 843.585Z"/>
	<path fill="#EDEEEE" transform="matrix(0.59365 0 0 0.593356 -6.10352e-05 6.10352e-05)" d="M1915.64 1311.9C1919.23 1316.82 1920.65 1325.17 1922.36 1330.84L1942.8 1330.84L1926.17 1343.64L1932.84 1364.47L1916.08 1351.24L1899.75 1363.71C1901.51 1356.94 1903.77 1350.22 1905.83 1343.51L1889.29 1330.84L1909.73 1330.84L1915.64 1311.9Z"/>
	<path fill="#EDEEEE" transform="matrix(0.59365 0 0 0.593356 -6.10352e-05 6.10352e-05)" d="M2580.07 1311.67C2582.8 1317.69 2584.35 1324.59 2586.27 1330.84L2606.71 1330.84L2590.16 1343.53C2592.41 1350.2 2594.29 1356.94 2596.21 1363.68L2580.78 1351.95C2575.23 1353.28 2567.59 1360.92 2563.15 1364.46L2569.84 1343.64L2553.21 1330.85L2573.65 1330.84C2575.55 1324.37 2577.71 1318.03 2580.07 1311.67Z"/>
	<path fill="#EDEEEE" transform="matrix(0.59365 0 0 0.593356 -6.10352e-05 6.10352e-05)" d="M2300.86 1311.61C2303.86 1317.62 2305.31 1324.51 2307.2 1330.84L2327.7 1330.84L2311.21 1343.45L2317.45 1363.8L2301.61 1351.91C2296.02 1353.52 2288.97 1360.61 2284.49 1364.18L2290.66 1343.53L2273.97 1330.84L2294.49 1330.84L2300.86 1311.61Z"/>
	<path fill="#EDEEEE" transform="matrix(0.59365 0 0 0.593356 -6.10352e-05 6.10352e-05)" d="M621.569 843.625C625.157 848.764 626.521 856.974 628.293 862.856L649.018 862.856L632.267 875.631L638.501 896.013Q630.257 889.661 621.789 883.525L605.492 896.053L611.73 875.63C606.223 871.288 600.537 867.099 594.923 862.856L615.521 862.856L621.569 843.625Z"/>
	<path fill="#EDEEEE" transform="matrix(0.59365 0 0 0.593356 -6.10352e-05 6.10352e-05)" d="M2634.79 1311.59C2637.89 1317.55 2639.3 1324.52 2641.19 1330.84L2661.73 1330.84L2645.21 1343.47L2651.52 1363.87L2634.89 1351.38L2618.47 1364.06L2624.7 1343.58L2607.94 1330.84L2628.47 1330.84L2634.79 1311.59Z"/>
	<path fill="#EDEEEE" transform="matrix(0.59365 0 0 0.593356 -6.10352e-05 6.10352e-05)" d="M2135.62 1311.72C2139.31 1316.64 2140.8 1325.11 2142.63 1330.84L2163.1 1330.84C2157.4 1335 2151.85 1339.34 2146.25 1343.6L2152.46 1364L2135.95 1351.43L2119.16 1364.29L2125.72 1343.53L2109.15 1330.84L2129.83 1330.84C2131.68 1324.46 2133.69 1318.09 2135.62 1311.72Z"/>
	<path fill="#EDEEEE" transform="matrix(0.59365 0 0 0.593356 -6.10352e-05 6.10352e-05)" d="M2469.61 1311.74C2473.36 1316.57 2474.81 1325.17 2476.6 1330.84L2497.09 1330.84C2491.4 1335 2485.85 1339.34 2480.25 1343.58L2486.46 1363.99L2469.99 1351.37L2453.12 1364.31C2455.5 1357.42 2457.52 1350.42 2459.7 1343.49L2443.21 1330.84L2463.82 1330.84L2469.61 1311.74Z"/>
	<path fill="#EDEEEE" transform="matrix(0.59365 0 0 0.593356 -6.10352e-05 6.10352e-05)" d="M2025.75 1311.57C2028.89 1317.59 2030.3 1324.47 2032.18 1330.84L2052.77 1330.84L2036.21 1343.52L2042.58 1363.96L2025.87 1351.37L2009.46 1364.09L2015.74 1343.57L1998.91 1330.84L2019.42 1330.84L2025.75 1311.57Z"/>
	<path fill="#EDEEEE" transform="matrix(0.59365 0 0 0.593356 -6.10352e-05 6.10352e-05)" d="M2359.72 1311.57C2362.93 1317.54 2364.3 1324.48 2366.17 1330.84L2386.82 1330.84L2370.21 1343.57L2376.6 1364.01L2359.84 1351.38L2343.44 1364.11L2349.75 1343.58C2344.23 1339.25 2338.51 1335.08 2332.9 1330.84L2353.39 1330.84L2359.72 1311.57Z"/>
	<path fill="#EDEEEE" transform="matrix(0.59365 0 0 0.593356 -6.10352e-05 6.10352e-05)" d="M2744.6 1311.7C2748.28 1316.74 2749.77 1325.02 2751.66 1330.84L2772.14 1330.84C2766.41 1334.99 2760.86 1339.35 2755.25 1343.61L2761.45 1364L2744.87 1351.47L2728.22 1364.28L2734.74 1343.58L2718.07 1330.84L2738.82 1330.84L2744.6 1311.7Z"/>
	<path fill="#EDEEEE" transform="matrix(0.59365 0 0 0.593356 -6.10352e-05 6.10352e-05)" d="M2689.61 1311.53C2693.07 1316.97 2694.43 1324.78 2696.25 1330.84L2717.07 1330.84C2711.36 1334.99 2705.83 1339.38 2700.24 1343.65L2706.51 1364.04C2700.99 1359.79 2695.36 1355.64 2689.78 1351.45L2673.39 1364.24L2679.75 1343.63C2674.25 1339.24 2668.48 1335.07 2662.8 1330.84L2683.45 1330.84C2685.67 1324.46 2687.57 1317.96 2689.61 1311.53Z"/>
	<path fill="#EDEEEE" transform="matrix(0.59365 0 0 0.593356 -6.10352e-05 6.10352e-05)" d="M2080.58 1311.57C2084.16 1316.73 2085.53 1324.95 2087.31 1330.84L2108.17 1330.84C2102.37 1334.93 2096.85 1339.38 2091.25 1343.66L2097.5 1364.06C2092.04 1359.77 2086.37 1355.65 2080.78 1351.47L2064.38 1364.25L2070.75 1343.64C2065.24 1339.25 2059.49 1335.08 2053.82 1330.84L2074.58 1330.84L2080.58 1311.57Z"/>
	<path fill="#EDEEEE" transform="matrix(0.59365 0 0 0.593356 -6.10352e-05 6.10352e-05)" d="M2414.57 1311.61C2418.15 1316.28 2419.67 1325.28 2421.41 1330.84L2442.17 1330.84C2436.36 1334.93 2430.85 1339.38 2425.25 1343.67L2431.5 1364.08C2426.08 1359.75 2420.39 1355.66 2414.78 1351.5L2398.34 1364.27L2404.74 1343.65Q2396.4 1337.13 2387.83 1330.84L2408.66 1330.84L2414.57 1311.61Z"/>
	<path fill="#EDEEEE" transform="matrix(0.59365 0 0 0.593356 -6.10352e-05 6.10352e-05)" d="M1416.29 750.728C1426.13 754.892 1441.87 774.306 1449.73 782.328Q1435 798.477 1419.1 813.811C1406.92 803.854 1396.41 792.077 1385.99 780.794L1416.29 750.728Z"/>
	<path fill="#EDEEEE" transform="matrix(0.59365 0 0 0.593356 -6.10352e-05 6.10352e-05)" d="M1413.87 1430.36C1426.11 1439.28 1436.41 1451.79 1446.61 1462.4C1437.63 1473.38 1426.82 1484.01 1416.09 1493.78C1403.94 1483.86 1393.46 1472.11 1383.07 1460.87Q1398.34 1445.52 1413.87 1430.36Z"/>
	<path fill="#EDEEEE" transform="matrix(0.59365 0 0 0.593356 -6.10352e-05 6.10352e-05)" d="M1150.35 1097.96C1151.57 1098.82 1151.95 1098.98 1152.92 1100.28C1158.53 1107.75 1171.92 1150.22 1170.32 1158.18C1168.52 1167.22 1179.1 1173.97 1176.38 1181.42L1174.36 1181.76C1168.63 1178.86 1163.45 1175.84 1158.16 1172.38C1156.34 1179.38 1154.93 1187.01 1150.31 1193.1C1146.65 1186.83 1145.54 1179.4 1143.84 1172.57C1138.15 1175.86 1132.66 1179.19 1126.36 1181.6L1124.85 1180.01C1125.39 1174.29 1129.38 1170.14 1130.98 1164.64C1132.81 1158.35 1132.98 1151.17 1133.71 1144.7C1135.61 1127.85 1140.47 1112.84 1150.35 1097.96Z"/>
	<path fill="#EDEEEE" transform="matrix(0.59365 0 0 0.593356 -6.10352e-05 6.10352e-05)" d="M1678.92 1098.07C1680.03 1098.81 1680.46 1098.99 1681.32 1100.14C1690.97 1112.95 1692.84 1131.93 1696.66 1146.52C1697.44 1149.51 1699.26 1152.33 1699.94 1155.3C1700.66 1158.44 1697.77 1160.96 1698.26 1163.97C1699.31 1170.43 1707.38 1174.37 1704.64 1181.83C1698.12 1180.77 1691.76 1175.83 1686.77 1172.21C1684.91 1179.15 1683.22 1185.99 1679.97 1192.58C1674.38 1188.65 1673.81 1178.5 1672.5 1172.64C1667.78 1175.33 1659.83 1180.87 1654.44 1181.59L1653.3 1179.33C1653.88 1174 1657.98 1169.84 1659.51 1164.62C1661.34 1158.35 1661.43 1151.15 1662.13 1144.7C1663.95 1127.99 1669.07 1112.76 1678.92 1098.07Z"/>
	<path fill="#EDEEEE" transform="matrix(0.59365 0 0 0.593356 -6.10352e-05 6.10352e-05)" d="M2104.83 994.484L2205.32 994.415L2205.23 1022.36L2176.06 1022.5L2175.81 1153.83C2175.96 1162.94 2176.57 1172.25 2175.55 1181.32C2175.81 1185.56 2175.1 1187.7 2178.7 1190.83C2186.54 1193.33 2196.75 1191.89 2205.12 1191.78L2205.23 1220.2L2104.12 1220.18L2104.23 1191.5L2133.65 1191.82L2133.68 1022.63C2124.08 1022.61 2114.46 1022.36 2104.86 1022.21L2104.83 994.484Z"/>
	<path fill="#EDEEEE" transform="matrix(0.59365 0 0 0.593356 -6.10352e-05 6.10352e-05)" d="M640.483 1609.58C668.483 1608.51 696.731 1609.05 724.77 1609.01L872.496 1608.93L1317.76 1608.95L1939.82 1609.04C2047.98 1609.01 2156.61 1607.24 2264.73 1609.07C2270.03 1609.16 2280.33 1608.55 2284.32 1611.57C2283.84 1612.41 2283.38 1613.36 2282.55 1614.01C2278.93 1616.85 2275.47 1616.45 2270.94 1616.68L1073.65 1617.03L760.692 1616.86L683.124 1616.79C669.511 1616.77 653.342 1618.1 640.092 1615.67C638.508 1612.78 639.173 1612.64 640.483 1609.58Z"/>
	<path fill="#EDEEEE" transform="matrix(0.59365 0 0 0.593356 -6.10352e-05 6.10352e-05)" d="M59.7195 1003.68L167.166 1003.81L166.968 1030.67L134.234 1030.87Q133.097 1119.17 134.9 1207.46Q174.595 1206.92 214.291 1207.41L214.414 1137.98L248.992 1138.2L249.482 1168.68L249.956 1235.4C186.381 1235.48 122.675 1236.34 59.1309 1234.67L59.5516 1207.41L92.3454 1207.27L92.5728 1031.04L59.6583 1030.18L59.7195 1003.68Z"/>
	<path fill="#EDEEEE" transform="matrix(0.59365 0 0 0.593356 -6.10352e-05 6.10352e-05)" d="M740.897 1003.5L942.72 1003.3C941.535 1030.27 942.843 1057.68 943.018 1084.68C932.934 1084.35 922.847 1083.69 912.775 1083.16Q911.733 1057.15 911.436 1031.13C895.609 1031.41 879.737 1031.06 863.907 1030.92Q863.502 1119.11 864.758 1207.3L891.336 1207.81C894.54 1208 895.016 1207.94 897.536 1209.57C900.501 1217.5 899.068 1226.84 898.871 1235.09Q842.76 1235.97 786.665 1234.53L786.941 1207.47C798.22 1207.42 809.513 1207.79 820.788 1208.04Q821.385 1119.62 820.532 1031.21L772.628 1031.23L772.733 1083.21L740.738 1081.51Q741.484 1042.51 740.897 1003.5Z"/>
	<path fill="#EDEEEE" transform="matrix(0.59365 0 0 0.593356 -6.10352e-05 6.10352e-05)" d="M1899.6 994.474L2088.04 994.5Q2088.02 1025.56 2089.06 1056.6L2054.71 1056.53C2054.29 1045.1 2054.68 1033.55 2054.7 1022.11L1971.67 1022.09L1971.33 1088.37L2022.36 1088.42L2022.5 1066.2L2043.11 1066.16C2043.06 1090.25 2043.89 1114.42 2043.04 1138.5L2021.97 1138.57L2022.1 1118.38L1971.25 1118.43L1971.3 1191.86L2002.67 1191.93L2003.04 1220.13L1897.56 1219.92L1897.72 1192.15L1928.49 1192.51L1928.63 1021.98L1898.41 1021.62C1898.32 1013.92 1896.21 1001.37 1899.6 994.474Z"/>
	<path fill="#EDEEEE" transform="matrix(0.59365 0 0 0.593356 -6.10352e-05 6.10352e-05)" d="M1734.45 746.681C1733.53 754.278 1729.62 770.498 1734.87 776.88C1737.1 779.584 1741.16 781.117 1744.97 781.299C1750.21 781.55 1755.77 780.959 1761.02 780.64C1752.17 791.876 1741.68 804.002 1729.98 813.211C1722.08 813.429 1708.3 812.183 1702.36 816.513L1515.29 1028.68C1482.95 1065.23 1448.77 1101.25 1417.95 1138.68L1571.98 1312.93C1590.81 1334.5 1610.37 1355.58 1629.2 1377.12C1643.71 1393.72 1657.23 1411.35 1673.46 1426.77C1684.76 1434.67 1696.28 1436.47 1709.5 1440.71C1716.38 1448.73 1721.07 1458.14 1726.24 1467.02C1736.22 1484.15 1746 1501.24 1759.12 1516.85C1737.5 1504.43 1698.11 1482.59 1681 1467.53C1677.81 1455.27 1675.57 1442.63 1667.72 1431.78C1632.6 1393.81 1599.48 1354.49 1565.23 1315.95Q1488.14 1230.6 1413.61 1143.63L1243.83 1333.09C1222.58 1356.68 1202.32 1380.79 1180.61 1404.1C1159.59 1426.97 1154.99 1432.2 1148.6 1461.14C1132.06 1475 1093.74 1499.9 1073.85 1510.01C1081.55 1495.16 1111.23 1443.31 1121.71 1434.01C1152.86 1427.12 1158.14 1421.19 1176.82 1400.46C1184.74 1390.62 1194.12 1381.42 1202.56 1371.85L1265.66 1300.65L1408.17 1139.09C1350.41 1072.52 1292.27 1005.84 1233.19 940.111L1170.11 868.609C1156.22 853.12 1140.31 837.775 1128.51 821.085C1122.45 816.766 1105.25 818.856 1097.17 819.017C1084.7 807.363 1072.26 795.196 1064.02 781.01Q1079.97 781.132 1095.91 781.402L1094.99 752.194C1107.74 762.673 1119.05 774.637 1129.84 786.569C1129.86 795.304 1127.98 807.964 1131.41 816.072C1159.9 845.802 1186.11 877.911 1213.33 908.548L1413.12 1133.84C1507.46 1026.17 1604.21 919.956 1697.6 811.694C1700.66 802.088 1699.2 790.471 1699.8 780.486C1710.13 768.03 1721.7 757.375 1734.45 746.681Z"/>
	<path fill="#EDEEEE" transform="matrix(0.59365 0 0 0.593356 -6.10352e-05 6.10352e-05)" d="M675.04 1003.46C685.417 1003.38 695.813 1003.18 706.184 1003.56C706.105 1026.66 706.385 1049.8 705.759 1072.9L676.902 1072.66C675.595 1065.87 673.725 1059.62 671.204 1053.07L664.953 1046.55C652.949 1039.08 639.183 1033.24 623.815 1035.06C614.698 1036.14 603.84 1039.63 598.231 1046.17C593.053 1052.2 588.655 1060.42 590.542 1068.05C592.776 1077.07 602.811 1083.71 611.571 1088.22C648.775 1107.37 702.544 1108.62 715.808 1151.39C720.919 1167.87 718.777 1190.95 708.38 1205.56C698.761 1219.08 681.622 1229.39 663.607 1233.09C636.236 1238.71 612.463 1231.88 589.495 1219.45L583.868 1216.38C586.218 1220.6 589.479 1224.83 588.75 1229.61C586.716 1232.37 585.748 1233.74 581.933 1234.71C574.291 1236.66 561.489 1234.27 553.501 1233.36C553.395 1207.96 552.066 1181.91 554.522 1156.61C565.069 1155.95 575.221 1156 585.77 1156.61C587.207 1171.99 590.092 1183.45 605.009 1193.78Q605.961 1194.45 606.951 1195.08Q607.94 1195.71 608.965 1196.3Q609.99 1196.89 611.048 1197.43Q612.106 1197.97 613.194 1198.47Q614.282 1198.97 615.398 1199.43Q616.514 1199.88 617.655 1200.28Q618.795 1200.69 619.958 1201.05Q621.121 1201.41 622.304 1201.72Q623.486 1202.02 624.685 1202.28Q625.884 1202.54 627.096 1202.75Q628.308 1202.96 629.531 1203.12Q630.755 1203.28 631.985 1203.38Q633.216 1203.49 634.451 1203.54Q635.687 1203.6 636.924 1203.6Q638.161 1203.61 639.397 1203.56Q640.633 1203.51 641.864 1203.41C653.004 1202.43 662.784 1197.75 669.726 1190.32C675.616 1184.01 679.192 1175.58 677.887 1167.49C676.277 1157.51 668.899 1149.32 659.278 1143.77C621.511 1121.96 565.699 1126.51 553.994 1078.99C549.915 1062.43 552.432 1043.07 563.664 1028.89C574.042 1015.78 589.586 1007.74 607.801 1005.01C629.443 1001.77 649.06 1005.37 667.525 1015.39L672.512 1018.08L675.04 1003.46Z"/>
	<path fill="#EDEEEE" transform="matrix(0.59365 0 0 0.593356 -6.10352e-05 6.10352e-05)" d="M2255.55 994.51L2308.74 994.519C2318.53 1006.25 2325.78 1020.56 2333.45 1033.37L2379.06 1110C2389.08 1126.91 2398.41 1145.13 2411.18 1160.68C2409.37 1114.91 2410.68 1068.75 2410.78 1022.95L2379.1 1022.53L2379.08 994.739L2476.38 994.611L2476.73 1022.19L2443.07 1022.74C2444.1 1088.36 2441.32 1154.14 2443.74 1219.75C2429.96 1220.24 2415.47 1220.73 2401.74 1219.61C2362.97 1160.44 2332.12 1097.41 2291.13 1039.31C2294.17 1089.75 2291.47 1140.99 2291.18 1191.52L2323.44 1191.81L2323.86 1220.12C2291.29 1220.45 2258.68 1220.15 2226.11 1220.13C2226.08 1210.64 2226.55 1201.12 2226.8 1191.63L2258.94 1191.66C2257 1135.78 2258.8 1079.39 2258.91 1023.45L2226.73 1022.31L2226.71 994.558L2255.55 994.51Z"/>
	<path fill="#EDEEEE" transform="matrix(0.59365 0 0 0.593356 -6.10352e-05 6.10352e-05)" d="M2537.38 994.509C2575.15 994.421 2625.17 990.089 2660.58 1002.64C2687.57 1012.21 2708.32 1031.68 2719.13 1054.5C2734.5 1086.97 2733.39 1132.65 2717.09 1164.78C2704.06 1190.44 2681.85 1205.22 2651.94 1215.42C2607 1223.61 2540.16 1221.36 2492.92 1219.51C2494.13 1210.39 2493.97 1201.09 2494.17 1191.92L2527.84 1192.28L2527.51 1022.45Q2511.13 1022.53 2494.76 1021.98L2494.73 994.597L2537.38 994.509ZM2570.53 1021.29Q2570.96 1106.91 2570.27 1192.52C2602.03 1192.18 2636.4 1195.05 2660.68 1173.91C2661.09 1173.56 2661.48 1173.19 2661.88 1172.83C2684.26 1150.02 2688.16 1121.95 2685.02 1093.23C2682.64 1071.49 2673.31 1049.24 2652.95 1034.96C2628.18 1017.59 2600.26 1022.49 2570.53 1021.29Z"/>
	<path fill="#EDEEEE" transform="matrix(0.59365 0 0 0.593356 -6.10352e-05 6.10352e-05)" d="M494.021 1193.42Q491.819 1196 489.431 1198.46Q487.042 1200.92 484.475 1203.25Q481.909 1205.58 479.175 1207.76Q476.441 1209.95 473.551 1211.99Q470.66 1214.02 467.624 1215.9Q464.589 1217.78 461.419 1219.49Q458.25 1221.2 454.961 1222.74Q451.671 1224.28 448.274 1225.64C419.614 1237.05 378.935 1237.75 349.385 1228.38C319.002 1218.75 296.748 1199.22 283.558 1174.41C266.688 1142.68 266.331 1102 281.125 1069.64C292.803 1044.1 314.014 1022.89 344.079 1012.04C373.71 1001.35 412.897 1000.93 442.783 1011.19C473.511 1021.74 495.611 1041.31 508.6 1066.96C512.813 1075.24 516.039 1083.16 517.316 1092.18C525.607 1123.32 518.558 1154.64 502.225 1182.96L494.021 1193.42ZM333.49 1064.78C327.962 1073.25 323.709 1081.25 320.005 1090.42C318.856 1097.51 318.049 1104.84 316.256 1111.82C316.778 1125.11 317.056 1138.95 321.708 1151.79C324.18 1158.54 327.288 1164.77 331.648 1170.8C342.448 1185.75 358.861 1198.11 379.415 1202.07Q381.139 1202.42 382.882 1202.69Q384.625 1202.96 386.382 1203.15Q388.139 1203.35 389.905 1203.47Q391.671 1203.59 393.443 1203.63Q395.214 1203.67 396.985 1203.64Q398.757 1203.61 400.524 1203.49Q402.291 1203.38 404.049 1203.2Q405.807 1203.01 407.552 1202.75Q409.297 1202.49 411.023 1202.15Q412.75 1201.81 414.454 1201.4Q416.159 1200.99 417.836 1200.51Q419.513 1200.02 421.159 1199.46Q422.805 1198.91 424.416 1198.28Q426.026 1197.65 427.597 1196.96Q429.168 1196.26 430.695 1195.5Q432.222 1194.74 433.701 1193.91C458.32 1180.25 467.631 1159.56 473.588 1136.29C473.983 1124.87 474.556 1114 473.617 1102.54C468.684 1081.91 460.926 1063.23 441.63 1049.01C427.502 1038.6 408.888 1032.99 390.163 1034.54C364.126 1036.69 349.556 1048.74 333.49 1064.78Z"/>
	<path fill="#EDEEEE" transform="matrix(0.59365 0 0 0.593356 -6.10352e-05 6.10352e-05)" d="M1580.72 1733.14L1761.35 1733.09Q1799.03 1771.33 1835.4 1810.47L1835.59 1899.86L1779.83 1899.83C1779.65 1880.01 1779.02 1860.09 1779.55 1840.27Q1757.99 1816.82 1735.4 1794.08C1693.39 1794.06 1651.29 1794.53 1609.29 1793.95Q1590.71 1813.28 1571.83 1832.39L1571.74 2041.97C1571.74 2082.98 1570.62 2124.22 1572.36 2165.21C1585.42 2176.9 1596.66 2189.98 1608.71 2202.4Q1671.91 2202.06 1735.11 2202.31C1749.92 2186.72 1766.01 2171.43 1780.01 2155.35C1780.02 2119.51 1781.11 2083.43 1779.95 2047.62Q1731.27 2048.33 1682.58 2047.7C1683.76 2028.8 1683.18 2009.74 1683.12 1990.82C1733.65 1990.81 1784.33 1990.04 1834.83 1990.82C1835.25 2055.38 1833.52 2120.13 1835.67 2184.66C1820.55 2201.97 1804.15 2218.54 1788.3 2235.36C1780.9 2243.22 1770.31 2252.5 1765.48 2261.61C1757.81 2264.31 1600.71 2264.47 1584.21 2262.77C1581 2262.43 1579.84 2261.72 1578.06 2259.54C1569.19 2252.61 1561.51 2242.81 1553.97 2234.75Q1531.85 2211.48 1510.63 2187.62C1509.62 2185.91 1508.56 2184.24 1508.3 2182.32C1506.15 2166.89 1508 2149.37 1508.03 2133.8L1508.1 2030.56L1507.82 1892.82C1507.69 1867.56 1505.96 1841.44 1507.98 1816.29C1508.31 1812.19 1509.26 1810.04 1511.93 1806.63C1534.28 1781.77 1557.8 1757.63 1580.72 1733.14Z"/>
	<path fill="#EDEEEE" transform="matrix(0.59365 0 0 0.593356 -6.10352e-05 6.10352e-05)" d="M1940.16 1733.36L2159.67 1733.45C2195.74 1733.44 2232.59 1732.13 2268.57 1733.62C2272.12 1748.18 2269.81 1766.12 2269.75 1781.11L2269.47 1872.71L2214.22 1872.62C2214.2 1845.41 2214.55 1818.15 2214.15 1790.95L2051.74 1790.72L2051.95 1971.22L2214.59 1971.18L2214.46 2028Q2133.05 2028.45 2051.64 2028.11Q2052.27 2117.34 2051.17 2206.56L2213.99 2206.32Q2213.85 2165.31 2214.23 2124.3C2232.55 2124.25 2251.13 2123.66 2269.41 2124.32L2269.6 2216.68C2269.62 2231.99 2270.44 2247.66 2269.54 2262.92C2256.81 2264.26 2242.99 2263.59 2230.15 2263.58L2162.93 2263.51L1938.5 2263.39C1935.22 2245.57 1938.02 2224.26 1938.55 2206.16C1954.8 2205.77 1971.15 2206.04 1987.41 2206.02C1986.58 2168.72 1987.53 2131.23 1987.58 2093.91Q1988.59 1942.14 1987.24 1790.38C1972.7 1790.21 1953.96 1792.88 1940.19 1789.35C1939.61 1788.04 1939.48 1787.87 1939.11 1786.28C1937.4 1778.93 1936.09 1738 1940.16 1733.36Z"/>
	<path fill="#EDEEEE" transform="matrix(0.59365 0 0 0.593356 -6.10352e-05 6.10352e-05)" d="M1131.57 1733.39C1193.39 1732.01 1255.97 1732.46 1317.8 1733.56L1318.35 1790.22C1307.61 1790.7 1296.76 1790.32 1286.01 1790.18C1289.1 1800.48 1292.58 1810.8 1294.7 1821.27L1295.9 1825.81C1307.72 1857.98 1316.06 1891.52 1325.41 1924.29L1358.5 2037.41C1374.38 2093.74 1393.37 2149.72 1407.54 2206.36C1419.18 2206.32 1430.93 2205.99 1442.56 2206.27L1442.56 2263.07L1295.35 2262.93L1294.9 2206.25L1343.55 2206.04L1311.73 2097.06L1138.3 2097.03C1125.27 2132.7 1116.92 2170.02 1106.02 2206.23C1122.21 2206.16 1138.4 2205.98 1154.57 2206.52C1154.64 2217.87 1157.35 2254.13 1153.55 2263.19L1006.58 2263.26Q1006.7 2235.61 1006.31 2207.96C1012.38 2203.76 1033.52 2205.98 1041.91 2206.1C1052.04 2165.41 1065.71 2125.14 1077.37 2084.72L1163.38 1790.59Q1147.3 1790.28 1131.21 1790.22L1131.57 1733.39ZM1224.27 1805.33C1213.36 1831.6 1207.08 1860.12 1199.25 1887.19C1184.49 1938.22 1169.91 1989.49 1153.77 2040.22L1227 2040.17L1295.6 2040.33C1287.41 2015.44 1229.06 1809.63 1224.27 1805.33Z"/>
	<path fill="#EDEEEE" transform="matrix(0.59365 0 0 0.593356 -6.10352e-05 6.10352e-05)" d="M952.953 97.5156C989.127 96.8747 1025.38 97.2799 1061.57 97.3208L1061.23 448.139L1107.34 448.128L1107.32 506.384L1061.5 506.494L1061.28 583.698L1112.49 583.851L1112.7 642.888C1054.02 643.387 995.238 643.157 936.557 642.788L936.473 602.876L936.436 584.292Q965.595 583.444 994.77 583.617L994.847 506.728L740.652 506.69C740.92 490.327 737.278 462.478 742.476 447.69C747.088 434.568 756.206 421.907 763.598 409.716L803.767 344.056C853.107 261.83 901.21 178.651 952.953 97.5156ZM992.973 152.924C978.339 177.459 816.027 442.805 816.412 447.328L817.421 448.101L995.033 448.097L994.733 229.914C994.729 214.991 997.176 164.12 993.999 153.777L992.973 152.924Z"/>
	<path fill="#EDEEEE" transform="matrix(0.59365 0 0 0.593356 -6.10352e-05 6.10352e-05)" d="M1895.96 97.2737C1932.2 96.8776 1968.48 97.1191 2004.73 97.115L2005.06 447.755L2050.81 447.778L2050.37 507.188L2004.66 507.174L2004.8 583.904L2056.03 583.938Q2055.76 613.453 2056.36 642.964L1880.13 643.003L1880.35 602.67L1880.3 584.235L1938.17 584.161L1938.25 507.205L1684.13 506.928C1683.95 491.198 1680.77 462.508 1685.58 448.334C1690.53 433.766 1701.04 419.31 1709.15 405.812L1750.98 336.399C1799.16 256.698 1846.15 176.231 1895.96 97.2737ZM1936.98 152.738L1795.14 387.578C1789.67 396.676 1760.7 440.629 1759.72 447.064L1760.05 447.64L1938.28 447.775C1938.12 418.777 1940.02 158.756 1936.98 152.738Z"/>
	<path fill="#EDEEEE" transform="matrix(0.59365 0 0 0.593356 -6.10352e-05 6.10352e-05)" d="M650.808 1733.39C680.001 1733.5 918.879 1731.3 927.723 1734.81C937.089 1739.8 988.561 1799.09 999.348 1810.93L999.14 1976.95Q963.013 2015.47 927.718 2054.55L761.625 2054.61L761.544 2206.45L817.559 2206.57C817.251 2225.4 817.709 2244.28 817.839 2263.12C761.492 2263.12 705.034 2263.77 648.702 2262.81Q649.007 2234.74 648.824 2206.67C664.887 2205.77 681.433 2206.35 697.55 2206.37L697.777 1790.31Q673.56 1790.66 649.372 1789.6C649.196 1779.5 646.032 1739.64 650.808 1733.39ZM762.152 1794.07C760.559 1817.6 761.685 1841.62 761.697 1865.23L761.876 1993.32L898.552 1993.14L915.902 1975.61Q927.823 1963.25 939.488 1950.72C939.799 1912.61 940.46 1874.32 939.103 1836.23C926.106 1822.2 913.417 1807.31 899.184 1794.2Q830.668 1794.57 762.152 1794.07Z"/>
	<path fill="#EDEEEE" transform="matrix(0.59365 0 0 0.593356 -6.10352e-05 6.10352e-05)" d="M1316.1 97.342C1384.13 95.4815 1452.88 97.2822 1520.97 97.3523Q1559.23 136.313 1596.26 176.122L1596.72 562.703C1572.42 589.78 1545.95 615.53 1521.38 642.468C1453.3 644.427 1384.5 642.604 1316.36 642.529C1291.18 615.641 1265.05 589.223 1240.76 561.754C1239.03 434.176 1240.58 306.467 1240.21 178.869C1262.24 150.392 1290.49 123.604 1316.1 97.342ZM1346.9 160.258L1303.84 203.283C1303.82 314.87 1302.15 426.608 1303.4 538.174Q1325.13 558.317 1345.1 579.726L1491.58 579.688C1505.72 566.12 1519.27 552.153 1533.2 538.432L1533.1 203.056Q1513.06 181.315 1491.67 160.527L1346.9 160.258Z"/>
	<path fill="#EDEEEE" transform="matrix(0.59365 0 0 0.593356 -6.10352e-05 6.10352e-05)" d="M1382.58 327.82C1406.79 327.317 1431.09 327.607 1455.31 327.524L1455.22 414.916L1382.17 414.905L1382.58 327.82Z"/>
</svg>
