<?xml version="1.0" encoding="utf-8" ?>
<svg xmlns="http://www.w3.org/2000/svg" xmlns:xlink="http://www.w3.org/1999/xlink" 
viewBox="0 0 900 763" width="100%" height="100%" preserveAspectRatio="xMidYMid meet">
	<path fill="#776D59" d="M342.583 238.383C343.315 238.57 344.068 238.764 344.761 239.069C347.223 240.153 349.896 242.806 350.689 245.409C351.002 246.436 351.009 247.59 350.37 248.509C349.355 249.969 347.575 249.962 345.986 250.085C342.182 249.138 340.727 247.2 338.342 244.276L344.49 242.581L342.583 238.383Z"/>
	<path fill="#776D59" d="M564.578 236.401L565.177 237.119C564.966 238.258 564.657 239.18 564.192 240.243L564.029 240.611L564.488 241.387C566.419 241.991 568.363 241.821 570.362 241.769Q567.669 245.489 564.86 249.123C562.633 249.291 560.307 249.135 558.07 249.099C558.055 246.687 558.121 244.268 558.151 241.856C560.13 239.78 562.275 238.103 564.578 236.401Z"/>
	<path fill="#776D59" d="M827.658 271.836L828.61 272.095C829.692 273.698 830.046 275.368 829.831 277.279C831.91 277.304 833.994 277.261 836.073 277.246C835.252 279.085 832.728 280.387 831.015 281.301C831.104 281.399 831.199 281.491 831.282 281.594C832.813 283.489 833.057 285.606 832.721 287.946C832.012 286.078 830.163 285.005 828.456 284.144C826.602 284.412 823.751 287.03 821.842 287.928C823.8 285.75 824.625 284.139 824.594 281.153C823.459 279.345 820.765 278.11 818.891 277.182L825.578 277.348C827.059 275.663 827.567 274.062 827.658 271.836Z"/>
	<path fill="#776D59" d="M632.509 271.458C633.919 272.696 634.425 275.507 634.958 277.272C637.051 277.32 639.158 277.259 641.252 277.249L636.122 281.293L638.12 287.756C636.409 286.392 634.609 285.136 632.839 283.85C630.873 284.98 629.155 286.566 627.407 288.004L629.694 281.354L624.318 277.235L630.722 277.336C631.403 275.416 631.928 273.412 632.509 271.458Z"/>
	<path fill="#776D59" d="M721.037 271.508C722.382 272.864 722.777 275.509 723.282 277.306L729.703 277.244C727.9 278.569 726.145 279.971 724.371 281.335C725.149 283.489 725.796 285.712 726.502 287.892L721.432 283.916C719.315 285.039 717.648 286.327 715.839 287.887L718.003 281.193C716.137 279.89 714.329 278.481 712.499 277.127C714.649 277.309 716.825 277.291 718.981 277.335L721.037 271.508Z"/>
	<path fill="#776D59" d="M703.282 271.468C704.64 272.699 705.152 275.57 705.689 277.287C707.816 277.36 709.957 277.227 712.084 277.155C710.325 278.555 708.508 279.888 706.713 281.242L708.915 287.891L703.714 283.862C701.907 284.408 699.603 286.728 698.092 287.928Q699.18 284.507 700.221 281.072C698.429 279.911 696.762 278.526 695.07 277.223L701.367 277.341L703.282 271.468Z"/>
	<path fill="#776D59" d="M792.4 271.828L793.314 272.11C794.443 273.714 794.764 275.344 794.675 277.282L800.82 277.251C799.812 279.122 797.54 280.295 795.782 281.399C795.936 281.559 796.101 281.708 796.243 281.878C797.515 283.391 797.814 286.015 797.683 287.897C797.078 286.297 794.771 284.973 793.353 284.14C791.433 284.321 788.785 287.05 786.831 287.964C786.946 287.851 787.067 287.744 787.175 287.624C788.669 285.971 789.389 283.33 789.354 281.148C788.431 279.512 785.299 278.019 783.646 277.139C785.872 277.263 788.112 277.277 790.342 277.329C791.716 275.624 792.294 274.009 792.4 271.828Z"/>
	<path fill="#776D59" d="M615.05 271.491C616.395 272.814 616.835 275.523 617.366 277.295L623.794 277.228C621.957 278.58 620.111 279.879 618.51 281.513L620.677 288.019L616.083 284.287L615.251 284.016C613.234 284.975 611.567 286.484 609.838 287.879L611.982 281.143C610.139 280.035 608.424 278.519 606.725 277.192L613.036 277.326L615.05 271.491Z"/>
	<path fill="#776D59" d="M685.529 271.406C686.957 272.824 687.461 275.41 688.063 277.288C690.204 277.365 692.381 277.237 694.524 277.185L689.106 281.339L691.077 287.634L685.937 283.826C683.933 284.811 682.071 286.702 680.351 288.147L682.699 281.282C680.911 279.986 679.186 278.579 677.442 277.222L683.821 277.342L685.529 271.406Z"/>
	<path fill="#776D59" d="M845.48 271.836C846.064 272.15 846.202 272.152 846.588 272.742Q846.751 272.989 846.89 273.251Q847.028 273.513 847.141 273.787Q847.254 274.061 847.34 274.344Q847.427 274.628 847.485 274.918Q847.544 275.208 847.575 275.503Q847.605 275.798 847.608 276.094Q847.61 276.39 847.584 276.686Q847.558 276.981 847.504 277.272C849.574 277.31 851.655 277.264 853.726 277.257C852.709 279.008 850.52 280.373 848.779 281.32C849.039 281.576 849.059 281.577 849.302 281.929C850.457 283.599 851.06 285.986 850.624 287.961C849.702 286.033 847.562 284.691 845.616 283.968C844.315 285.488 841.953 286.898 840.129 287.695C840.411 287.357 840.373 287.418 840.668 286.974C841.604 285.563 842.687 282.897 842.362 281.2C841.049 279.388 838.447 278.124 836.48 277.156L843.25 277.343C844.668 275.782 845.17 273.879 845.48 271.836Z"/>
	<path fill="#776D59" d="M774.72 271.808L775.706 272.156C776.731 273.801 777.226 275.366 776.94 277.306C779.036 277.34 781.135 277.261 783.23 277.215C782.429 279.02 779.844 280.33 778.18 281.309C778.338 281.483 778.516 281.641 778.656 281.83C779.778 283.343 780.218 285.944 780.084 287.777C779.12 286.161 777.127 285.066 775.534 284.13C774.321 284.105 770.732 287.195 769.182 287.9C769.295 287.784 769.414 287.674 769.52 287.552Q769.799 287.228 770.047 286.879Q770.294 286.53 770.507 286.159Q770.719 285.788 770.896 285.399Q771.073 285.009 771.211 284.604Q771.35 284.2 771.449 283.784Q771.549 283.368 771.608 282.944Q771.667 282.521 771.686 282.093Q771.705 281.666 771.683 281.239C770.822 279.574 767.802 278.139 766.169 277.224L772.648 277.362C773.974 275.667 774.658 273.968 774.72 271.808Z"/>
	<path fill="#776D59" d="M880.756 271.836L881.544 272.026C882.716 273.547 883.089 275.377 882.993 277.266L889.107 277.267C888.129 279.11 885.887 280.294 884.188 281.427C884.293 281.539 884.411 281.64 884.502 281.764C885.771 283.493 886.147 285.909 886.024 287.995C885.34 286.292 883.019 284.997 881.486 284.145C880.235 284.13 876.576 287.135 875.047 287.84C875.174 287.713 875.305 287.589 875.43 287.459C877.047 285.776 877.74 283.391 877.685 281.107C876.514 279.406 873.752 277.984 871.886 277.162L878.662 277.366C880.116 275.758 880.423 273.915 880.756 271.836Z"/>
	<path fill="#776D59" d="M738.439 271.441C739.898 272.688 740.359 275.492 740.903 277.276C742.976 277.325 745.066 277.257 747.141 277.241L742.162 281.234L744.125 287.778L738.97 283.938C737.105 284.518 734.997 286.633 733.462 287.876L735.557 281.23L730.21 277.258L736.675 277.339C737.313 275.392 737.858 273.406 738.439 271.441Z"/>
	<path fill="#776D59" d="M39.3333 420.965C40.5814 422.536 41.0548 424.829 41.6747 426.722L48.3823 426.727C46.3847 427.929 44.5892 429.423 42.761 430.863L44.7592 437.372L39.526 433.229L34.1418 437.307C34.9003 435.164 35.5327 432.97 36.2024 430.797C34.4459 429.3 32.5758 428.044 30.6576 426.768L37.4459 426.75L39.3333 420.965Z"/>
	<path fill="#776D59" d="M809.873 271.828C810.721 272.046 810.804 271.891 811.327 272.672C812.245 274.043 812.557 275.68 812.197 277.272C814.293 277.364 816.389 277.26 818.485 277.187C817.453 279.147 815.294 280.363 813.382 281.33C813.7 281.711 813.704 281.696 814.018 282.181C815.082 283.825 815.771 285.991 815.415 287.925C814.697 286.358 812.87 285.309 811.384 284.581L810.866 284.102C808.971 284.351 806.103 287.165 804.155 288.106C805.914 285.892 807.012 284.198 806.964 281.269C805.976 279.464 803.231 278.181 801.438 277.255L808.026 277.348C809.441 275.654 809.823 274.006 809.873 271.828Z"/>
	<path fill="#776D59" d="M650.241 271.491C651.587 272.784 652.046 275.524 652.579 277.274C654.678 277.349 656.79 277.245 658.889 277.194C657.293 278.607 655.557 279.851 653.852 281.128L655.924 287.94L651.091 284.217L650.591 284.05C648.689 284.7 646.701 286.671 645.106 287.939C645.871 285.704 646.535 283.424 647.243 281.17L641.931 277.224L648.312 277.339C648.994 275.406 649.602 273.439 650.241 271.491Z"/>
	<path fill="#776D59" d="M667.955 271.409C669.325 272.644 669.782 275.548 670.307 277.307L676.888 277.238C674.956 278.473 673.214 279.945 671.44 281.393L673.732 288.081L668.287 283.761C666.315 284.936 664.585 286.461 662.817 287.916L664.896 281.194L659.467 277.145C661.629 277.291 663.817 277.282 665.985 277.328L667.955 271.409Z"/>
	<path fill="#776D59" d="M862.866 271.837C863.68 272.04 863.758 271.887 864.26 272.637Q864.427 272.889 864.569 273.155Q864.711 273.422 864.827 273.7Q864.943 273.979 865.031 274.268Q865.12 274.556 865.181 274.852Q865.242 275.148 865.274 275.448Q865.306 275.748 865.31 276.05Q865.313 276.352 865.288 276.653Q865.262 276.954 865.208 277.251C867.245 277.345 869.279 277.253 871.316 277.192C870.298 279.164 868.374 280.237 866.519 281.291C866.677 281.467 866.848 281.63 866.992 281.817C868.174 283.358 868.541 286.037 868.115 287.864C867.033 285.873 865.252 284.765 863.19 283.959C861.327 285.503 859.61 286.984 857.379 287.974C857.651 287.689 857.752 287.599 857.98 287.313C859.251 285.721 860.175 283.316 860 281.273C858.701 279.372 856.254 278.174 854.209 277.244L860.821 277.345C862.362 275.698 862.806 274.058 862.866 271.837Z"/>
	<path fill="#776D59" d="M56.9833 271.425C58.3329 272.765 58.6458 275.049 59.1432 276.844L65.7371 276.903C63.8544 278.159 62.1252 279.665 60.3666 281.088L62.6234 287.623L57.2031 283.466C55.2187 284.688 53.4857 286.278 51.7091 287.779L53.9966 281.034L48.4954 276.892L55.0531 276.875L56.9833 271.425Z"/>
	<path fill="#776D59" d="M757.418 271.454C758.994 272.88 758.91 275.224 760.14 276.892C761.823 277.629 763.611 277.32 765.402 277.201C764.367 278.938 762.679 280.016 761.095 281.225C761.772 283.365 762.326 285.535 762.891 287.707L757.777 283.849C755.872 284.832 754.03 286.677 752.35 288.043L754.563 281.29L749.126 277.205L755.532 277.338C756.258 275.419 756.808 273.414 757.418 271.454Z"/>
	<path fill="#776D59" d="M164.438 271.017C165.383 272.673 165.884 275.02 166.476 276.857L173.122 276.893C171.171 278.092 169.428 279.595 167.652 281.033L169.839 287.692C168.122 286.285 166.339 284.965 164.568 283.629C162.369 284.555 160.642 286.238 158.861 287.781L161.178 280.981L155.714 276.915L162.311 276.901C162.962 274.92 163.712 272.972 164.438 271.017Z"/>
	<path fill="#776D59" d="M270.155 421.311C271.469 422.358 271.887 425.104 272.358 426.699L279.174 426.727C277.187 427.995 275.382 429.476 273.547 430.95C274.391 433.084 275.043 435.333 275.769 437.512L271.028 433.69L270.375 433.497C268.438 434.248 266.488 436.223 264.871 437.545L267.074 430.711L261.532 426.762L268.207 426.752L270.155 421.311Z"/>
	<path fill="#776D59" d="M632.546 421.325C633.888 422.512 634.392 425.334 634.917 427.011C637.16 427.089 639.448 426.915 641.693 426.828L636.117 431.007L638.138 437.736C636.385 436.28 634.668 434.92 632.74 433.7C630.814 434.865 629.093 436.443 627.35 437.863L629.673 431.147L624.078 426.925L630.728 427.035C631.39 425.156 631.948 423.226 632.546 421.325Z"/>
	<path fill="#776D59" d="M39.3703 271.093C40.5651 272.594 41.0765 275.042 41.6906 276.861L48.3012 276.897C46.3465 278.139 44.5476 279.615 42.7194 281.033L44.9839 287.834C43.2259 286.297 41.3849 284.876 39.5412 283.444C37.6826 284.632 35.9269 286.197 34.1775 287.553L36.2437 280.906C34.4834 279.49 32.6109 278.217 30.7645 276.917L37.4478 276.891L39.3703 271.093Z"/>
	<path fill="#776D59" d="M145.152 421.249C146.655 422.503 147.056 424.897 147.604 426.702L154.14 426.702C152.224 427.979 150.467 429.463 148.68 430.911L151.008 437.609L145.467 433.236L139.982 437.526L142.221 430.76C140.431 429.292 138.519 428.041 136.589 426.768L143.362 426.742L145.152 421.249Z"/>
	<path fill="#776D59" d="M74.5089 271.071C75.8842 272.462 76.2819 274.992 76.8366 276.839L83.4263 276.903C81.5766 278.18 79.8061 279.587 78.0164 280.948C78.8365 283.09 79.4297 285.373 80.1024 287.568C78.4383 286.177 76.6808 284.895 74.951 283.587C72.8177 284.595 71.0959 286.2 69.3069 287.71L71.6038 281.034C69.8049 279.571 67.8989 278.251 66.0101 276.908L72.721 276.892L74.5089 271.071Z"/>
	<path fill="#776D59" d="M721.058 421.408C722.219 422.664 722.709 425.38 723.238 427.024C725.506 427.04 727.792 426.925 730.06 426.873C728.072 428.185 726.213 429.753 724.337 431.223C725.209 433.438 725.931 435.741 726.718 437.99L721.434 433.651C719.296 434.673 717.413 436.497 715.591 438.01L717.999 431.084L712.365 426.93L719.037 427.052L721.058 421.408Z"/>
	<path fill="#776D59" d="M270.174 271.44C271.491 272.485 271.904 275.248 272.363 276.83L279.015 276.914C277.105 278.128 275.343 279.586 273.553 280.97L275.922 287.803C274.188 286.386 272.386 285.04 270.615 283.668C268.882 283.893 266.215 286.686 264.862 287.81L267.105 280.852L261.524 276.904L268.202 276.893L270.174 271.44Z"/>
	<path fill="#776D59" d="M827.746 421.711L828.641 421.967C829.598 423.413 830.235 425.291 829.903 427.021L836.552 426.794C835.566 428.618 832.788 430.245 831.011 431.21C831.28 431.499 831.405 431.615 831.648 431.968C832.918 433.806 832.974 435.608 832.688 437.755C831.885 435.792 830.292 434.908 828.453 434.019C826.321 434.446 823.868 436.82 821.779 437.823C823.76 435.673 824.613 434.085 824.577 431.085C823.545 429.016 820.308 427.722 818.298 426.795C820.742 426.859 823.19 427.015 825.632 427.135C827.071 425.586 827.509 423.765 827.746 421.711Z"/>
	<path fill="#776D59" d="M127.536 420.91C128.905 422.253 129.368 424.911 129.927 426.705L136.548 426.732C134.598 428.045 132.853 429.443 131.099 431.006L133.124 437.503L127.782 433.217L122.31 437.481L124.61 430.899C122.815 429.389 120.872 428.073 118.956 426.721L125.761 426.762L127.536 420.91Z"/>
	<path fill="#776D59" d="M145.158 271.364C146.658 272.603 147.02 275.054 147.557 276.852L154.213 276.916C152.252 278.119 150.458 279.578 148.633 280.975L151.021 287.911Q148.261 285.641 145.433 283.458C143.603 284.793 141.839 286.241 140.054 287.636L142.211 280.848C140.405 279.47 138.526 278.197 136.658 276.906L143.324 276.888Q144.26 274.132 145.158 271.364Z"/>
	<path fill="#776D59" d="M252.435 271.1C253.753 272.434 254.226 275.082 254.788 276.862L261.44 276.882C259.548 278.146 257.752 279.578 255.935 280.949L258.209 287.854C256.413 286.267 254.498 284.83 252.598 283.37L246.978 288.036C247.917 285.73 248.653 283.321 249.448 280.961C247.673 279.536 245.81 278.229 243.962 276.901L250.644 276.898L252.435 271.1Z"/>
	<path fill="#776D59" d="M182.036 271.058C183.017 272.699 183.468 274.977 184.045 276.809L190.551 276.895L185.232 281.052L187.667 287.855L182.072 283.487C180.043 284.639 178.34 286.333 176.605 287.878L178.857 280.96L173.185 276.877L179.932 276.887C180.557 274.917 181.306 272.991 182.036 271.058Z"/>
	<path fill="#776D59" d="M234.757 271.025C236.176 272.273 236.574 275.074 237.078 276.843L243.703 276.904C241.807 278.196 240.026 279.721 238.229 281.15L240.61 288.004Q238.143 285.904 235.655 283.83L235.188 283.655C233.352 284.192 231.209 286.367 229.709 287.593C230.325 285.38 231.138 283.217 231.893 281.047L226.424 276.91L233.08 276.867L234.757 271.025Z"/>
	<path fill="#776D59" d="M56.8718 421.252C58.3811 422.431 58.7283 424.935 59.2447 426.701L65.8534 426.711C63.9872 428.055 62.1715 429.485 60.3362 430.872C61.1657 433.073 61.8742 435.338 62.6369 437.564C60.8918 436.188 59.1008 434.863 57.3302 433.52C55.1471 434.397 53.4071 436.115 51.6287 437.614L54.0063 430.797L48.4223 426.739L55.0388 426.763L56.8718 421.252Z"/>
	<path fill="#776D59" d="M234.897 420.951C236.193 422.455 236.611 424.782 237.189 426.659L243.974 426.633C241.997 427.948 240.1 429.422 238.182 430.824C239.05 432.986 239.709 435.274 240.438 437.488L235.077 433.325C233.193 434.411 231.393 436.039 229.651 437.362L231.851 430.881C230.091 429.445 228.216 428.118 226.397 426.756L232.992 426.749L234.897 420.951Z"/>
	<path fill="#776D59" d="M252.27 421.216C253.868 422.489 254.256 424.84 254.847 426.718L261.335 426.742C259.465 428.013 257.714 429.44 255.945 430.845L258.038 437.506C256.308 436.073 254.509 434.728 252.721 433.368C250.712 434.603 248.91 436.14 247.075 437.614C247.949 435.388 248.695 433.096 249.494 430.841C247.575 429.249 245.552 427.899 243.466 426.538C245.832 426.671 248.209 426.714 250.577 426.793L252.27 421.216Z"/>
	<path fill="#776D59" d="M703.262 421.327C704.616 422.547 705.133 425.307 705.689 427.005C707.945 427.041 710.216 426.944 712.473 426.902C710.535 428.216 708.673 429.674 706.79 431.067Q707.817 434.43 708.895 437.778L703.763 433.872C702.257 433.966 699.301 436.785 698.064 437.764C698.849 435.523 699.539 433.241 700.265 430.979L694.801 426.997L701.402 427.105L703.262 421.327Z"/>
	<path fill="#776D59" d="M74.6381 420.811C75.7833 422.496 76.2409 424.753 76.8438 426.689C79.1791 426.684 81.5191 426.607 83.8543 426.564C81.806 427.908 79.923 429.343 78.0373 430.907C78.8654 432.975 79.4588 435.207 80.1341 437.335L74.804 433.27L69.37 437.395L71.6353 430.842C69.7782 429.394 67.8272 428.07 65.8988 426.72L72.6432 426.757C73.3548 424.795 73.9797 422.792 74.6381 420.811Z"/>
	<path fill="#776D59" d="M845.251 421.71C845.978 422.035 846.111 421.991 846.588 422.691Q846.748 422.924 846.884 423.172Q847.02 423.419 847.132 423.679Q847.243 423.939 847.329 424.208Q847.415 424.478 847.473 424.754Q847.532 425.031 847.564 425.311Q847.595 425.592 847.599 425.875Q847.603 426.158 847.58 426.439Q847.556 426.721 847.505 426.999C849.599 427.072 851.705 426.953 853.799 426.89C852.806 428.878 850.571 430.213 848.656 431.216C848.956 431.496 848.961 431.481 849.249 431.871C850.463 433.513 851.087 435.866 850.69 437.853C849.594 435.916 847.665 434.578 845.608 433.826C843.891 435.497 841.781 436.862 839.638 437.908C840.104 437.427 840.531 436.965 840.885 436.392C841.753 434.985 842.668 432.755 842.29 431.109C840.695 429.018 838.352 427.9 836.034 426.803Q839.652 426.957 843.271 427.071C844.595 425.401 845.337 423.873 845.251 421.71Z"/>
	<path fill="#776D59" d="M738.475 421.303C739.89 422.545 740.327 425.253 740.847 427.016L747.578 426.856L742.094 430.983L744.18 437.789L738.923 433.661C736.874 434.785 735.152 436.361 733.368 437.855L735.543 431.114Q732.752 428.984 729.896 426.941L736.629 427.021C737.359 425.166 737.885 423.207 738.475 421.303Z"/>
	<path fill="#776D59" d="M615.068 421.364C616.339 422.716 616.788 425.249 617.339 427.011C619.615 427.034 621.907 426.928 624.184 426.879C622.161 428.168 620.291 429.717 618.397 431.188C619.263 433.442 619.988 435.774 620.776 438.058L615.973 434.043L615.216 433.878C613.204 434.729 611.556 436.318 609.878 437.693L611.945 430.975C610.075 429.647 608.242 428.259 606.394 426.902L613.099 427.053L615.068 421.364Z"/>
	<path fill="#776D59" d="M217.218 420.91C218.458 422.29 218.993 424.97 219.592 426.735L226.385 426.702C224.348 427.937 222.486 429.442 220.594 430.884C221.381 433.059 222.026 435.314 222.735 437.518L217.389 433.314C215.503 434.552 213.731 436.13 211.962 437.539L214.109 430.768C212.302 429.338 210.356 428.066 208.461 426.755L215.375 426.745L217.218 420.91Z"/>
	<path fill="#776D59" d="M199.504 270.987C200.662 272.801 201.16 274.82 201.77 276.865L208.477 276.882L202.968 280.911L205.127 287.783C203.389 286.208 201.475 284.848 199.596 283.449L194.104 287.861C194.988 285.604 195.692 283.262 196.447 280.959C194.669 279.495 192.773 278.218 190.875 276.92L197.636 276.891L199.504 270.987Z"/>
	<path fill="#776D59" d="M127.525 271.038C128.882 272.402 129.391 275.028 129.99 276.825L136.456 276.892L131.059 280.918L133.226 287.922C131.486 286.315 129.616 284.852 127.779 283.358L122.249 287.694L124.579 280.926L119.163 276.886L125.748 276.879L127.525 271.038Z"/>
	<path fill="#776D59" d="M199.448 420.832C200.709 422.531 201.164 424.72 201.752 426.721L208.622 426.745C206.661 427.993 204.827 429.421 202.973 430.82L205.028 437.507L199.68 433.263L194.222 437.585L196.499 430.825C194.62 429.308 192.647 428.029 190.605 426.744L197.596 426.769C198.262 424.811 198.834 422.808 199.448 420.832Z"/>
	<path fill="#776D59" d="M164.052 421.225C165.586 422.436 166.018 424.895 166.608 426.686L173.698 426.58C171.502 427.897 169.579 429.236 167.659 430.933L169.707 437.386L164.736 433.57C162.878 433.797 160.46 436.246 159.015 437.395L161.157 430.773C159.32 429.28 157.318 427.958 155.382 426.595L162.28 426.756L164.052 421.225Z"/>
	<path fill="#776D59" d="M792.398 421.703L793.328 421.964C794.377 423.454 794.947 425.232 794.653 427.049C796.787 427.086 798.947 426.956 801.082 426.891C800.042 428.78 797.612 430.148 795.828 431.308C795.974 431.458 796.131 431.599 796.266 431.759C797.57 433.308 797.813 435.949 797.69 437.868C796.829 436.052 794.839 434.897 793.114 434.016C791.464 434.18 788.291 437.164 786.518 438.038C788.4 436.119 789.364 433.738 789.351 431.032C788.453 429.239 785.204 427.776 783.41 426.923L790.507 427.073C791.716 425.478 792.309 423.693 792.398 421.703Z"/>
	<path fill="#776D59" d="M217.249 271.05C218.499 272.659 218.974 274.931 219.598 276.854L226.217 276.936C224.225 278.121 222.416 279.604 220.574 281.008L222.996 287.976C221.199 286.427 219.306 284.975 217.451 283.495C215.494 284.774 213.72 286.305 211.912 287.783L214.118 280.884C212.321 279.489 210.434 278.215 208.567 276.915L215.338 276.869L217.249 271.05Z"/>
	<path fill="#776D59" d="M650.277 421.342C651.593 422.811 651.998 425.172 652.565 427.035L659.713 426.803C657.616 428.131 655.72 429.467 653.879 431.134C654.479 433.407 655.251 435.642 655.971 437.881L651.076 434.078L650.586 433.916C648.803 434.41 646.722 436.449 645.23 437.609L647.232 431.072L641.692 427.008L648.263 427.093C649.013 425.212 649.62 423.258 650.277 421.342Z"/>
	<path fill="#776D59" d="M809.888 421.704C810.909 421.972 811.032 421.964 811.577 422.944C812.275 424.201 812.549 425.619 812.176 427.004C814.333 427.008 816.505 426.894 818.663 426.835C817.87 428.795 815.175 430.166 813.361 431.103C815 433.068 815.516 435.336 815.309 437.849C814.48 435.973 812.49 434.838 810.695 434.018C809.353 434.1 805.974 437.062 804.429 437.878C804.548 437.757 804.674 437.642 804.786 437.514C806.287 435.808 807.05 433.354 806.955 431.108C806.077 429.16 802.988 427.811 801.119 426.961L808.038 427.05C809.465 425.351 809.871 423.899 809.888 421.704Z"/>
	<path fill="#776D59" d="M181.751 421.266C183.18 422.429 183.537 424.929 184.048 426.653L190.884 426.713C188.943 428.041 187.085 429.515 185.207 430.933C186.18 433.023 186.826 435.386 187.571 437.572L182.26 433.411C180.442 433.934 178.098 436.422 176.604 437.673L178.84 430.833C177.011 429.369 175.045 428.044 173.139 426.679L179.878 426.761L181.751 421.266Z"/>
	<path fill="#776D59" d="M92.2991 270.989C93.579 272.605 93.9449 274.902 94.4886 276.864L101.454 276.885C99.4047 278.05 97.579 279.54 95.7174 280.977Q96.8635 284.429 98.0521 287.866C96.2428 286.342 94.3312 284.949 92.4392 283.53C90.5055 284.82 88.751 286.351 86.9629 287.833C87.7964 285.539 88.468 283.175 89.1871 280.842Q86.4181 278.845 83.5951 276.925L90.3241 276.894L92.2991 270.989Z"/>
	<path fill="#776D59" d="M774.69 421.677L775.576 421.906C776.714 423.471 777.162 425.068 776.873 426.99C779.105 427.078 781.341 426.964 783.573 426.893C782.748 428.552 779.738 430.289 778.141 431.241C778.407 431.478 778.439 431.485 778.679 431.823C779.817 433.426 780.314 435.851 779.981 437.754C778.927 435.949 777.178 435.009 775.421 434.008C774.404 433.962 770.536 437.107 769.153 437.763C770.912 435.952 771.706 433.535 771.702 431.038C770.249 429.105 767.772 427.936 765.609 426.984Q769.144 427.01 772.677 427.113C774.022 425.519 774.662 423.759 774.69 421.677Z"/>
	<path fill="#776D59" d="M287.747 270.928C289.025 272.593 289.428 274.827 289.979 276.817L296.48 276.918L291.22 281.061Q292.475 284.433 293.651 287.833L287.903 283.425C286.043 284.852 284.277 286.457 282.483 287.968Q283.644 284.466 284.858 280.982C282.992 279.591 281.092 278.243 279.207 276.878L285.831 276.882C286.537 274.927 287.119 272.91 287.747 270.928Z"/>
	<path fill="#776D59" d="M757.359 421.316C758.801 422.554 759.251 425.22 759.792 426.984C761.709 427.063 763.639 426.936 765.555 426.866C764.532 428.726 762.747 429.821 761.086 431.078C761.75 433.275 762.333 435.479 762.891 437.704C761.237 436.229 759.413 434.956 757.63 433.643L752.284 437.877Q753.403 434.543 754.566 431.224C752.668 429.631 750.659 428.238 748.62 426.833C750.927 426.966 753.246 427.005 755.557 427.082C756.271 425.209 756.783 423.236 757.359 421.316Z"/>
	<path fill="#776D59" d="M109.986 420.924C111.257 422.392 111.711 424.845 112.302 426.681L119.041 426.721C117.071 428.017 115.195 429.489 113.301 430.893C114.146 433.082 114.847 435.345 115.601 437.569L110.172 433.347C108.248 434.483 106.441 436.204 104.701 437.624C105.384 435.349 106.174 433.108 106.941 430.861C105.077 429.331 103.037 428.006 101.053 426.637L108.149 426.769L109.986 420.924Z"/>
	<path fill="#776D59" d="M110.024 271.076C111.246 272.548 111.738 275.022 112.334 276.837L118.941 276.912C116.968 278.13 115.151 279.65 113.314 281.065L115.862 288.037L110.327 283.498C108.27 284.653 106.503 286.309 104.698 287.818C105.379 285.526 106.164 283.266 106.93 281C105.132 279.563 103.219 278.243 101.357 276.889L108.155 276.906C108.609 274.917 109.351 273 110.024 271.076Z"/>
	<path fill="#776D59" d="M287.792 420.835C288.975 422.58 289.424 424.655 290.011 426.66C292.328 426.714 294.659 426.624 296.976 426.58Q294.058 428.718 291.179 430.907C292.086 433.025 292.731 435.334 293.464 437.522L288.093 433.407C286.171 434.422 284.304 436.177 282.579 437.53L284.844 430.856C282.992 429.413 281.032 428.08 279.123 426.711L285.771 426.769C286.495 424.813 287.126 422.812 287.792 420.835Z"/>
	<path fill="#776D59" d="M862.846 421.712C863.629 421.911 863.73 421.773 864.216 422.489C865.065 423.741 865.501 425.504 865.198 426.987C867.343 427.077 869.487 426.953 871.63 426.87C871.591 427.004 871.57 427.146 871.512 427.273C870.803 428.815 867.861 430.343 866.421 431.115C866.679 431.347 866.716 431.358 866.946 431.69C868.126 433.388 868.536 435.825 868.162 437.811C867.323 435.934 865.447 434.978 863.692 434.12C862.437 434.036 858.839 437.311 857.086 437.98C857.24 437.822 857.396 437.667 857.547 437.507C859.18 435.773 860.058 433.561 859.956 431.183C859.055 429.17 855.79 427.811 853.829 427.017L860.992 427.035C862.393 425.376 862.818 423.868 862.846 421.712Z"/>
	<path fill="#776D59" d="M21.5908 271.003C22.958 272.356 23.4496 275.003 24.0325 276.802L30.545 276.9L25.0996 280.932L27.2154 287.841C25.5399 286.291 23.7265 284.905 21.9384 283.488C19.9182 284.612 18.0129 286.437 16.1944 287.888L18.5744 280.999C16.8196 279.563 14.9645 278.257 13.1282 276.929L19.8304 276.869L21.5908 271.003Z"/>
	<path fill="#776D59" d="M880.665 421.712C881.409 421.867 881.42 421.721 881.904 422.396C882.802 423.649 883.346 425.506 883.031 427.024L889.378 426.869C888.528 428.639 885.9 430.096 884.328 431.257C884.425 431.367 884.535 431.468 884.621 431.587C885.794 433.207 886.282 435.976 885.876 437.886C885.136 436.01 883.05 434.941 881.376 434.021C880.07 434.072 876.67 437.046 875.086 437.779C875.2 437.664 875.32 437.555 875.428 437.433C876.96 435.699 877.683 433.308 877.663 431.026C876.702 429.374 873.663 427.852 871.967 426.984Q875.369 426.986 878.769 427.123C879.971 425.498 880.618 423.734 880.665 421.712Z"/>
	<path fill="#776D59" d="M21.5542 420.876C22.9411 422.309 23.418 424.816 24.0161 426.677L30.6168 426.726L25.0801 430.805L27.1686 437.577Q24.522 435.413 21.8355 433.299L16.1229 437.698C17.033 435.459 17.8026 433.145 18.6243 430.871L13.0036 426.671L19.7879 426.77L21.5542 420.876Z"/>
	<path fill="#776D59" d="M685.509 421.267C686.946 422.58 687.431 425.198 688.019 427.005C690.233 427.065 692.489 426.909 694.704 426.833L689.12 431.098L691.074 437.657C689.306 436.249 687.491 434.939 685.64 433.643L680.154 438.169C681 435.842 681.779 433.487 682.585 431.146L676.978 426.761C679.238 426.995 681.527 427.005 683.798 427.076L685.509 421.267Z"/>
	<path fill="#776D59" d="M92.3261 420.88C93.5437 422.21 94.0728 424.98 94.6461 426.706L101.978 426.531C99.7068 427.86 97.6926 429.26 95.6601 430.931C96.5323 433.03 97.1303 435.331 97.8213 437.5L92.6243 433.352C90.6788 434.241 88.702 436.176 87.0053 437.526C87.823 435.319 88.4759 433.027 89.1839 430.781C87.3017 429.22 85.2106 427.895 83.1884 426.521C85.5585 426.638 87.9369 426.681 90.309 426.758L92.3261 420.88Z"/>
	<path fill="#776D59" d="M667.902 421.32C669.316 422.574 669.725 425.196 670.324 427.004Q673.657 426.948 676.991 426.93C675.006 428.257 673.222 429.766 671.407 431.31L673.768 438.03L668.232 433.589C666.364 434.843 664.635 436.366 662.885 437.781L664.901 431.073L659.095 426.758L666.048 427.039L667.902 421.32Z"/>
	<path fill="#776D59" d="M453.789 459.116C457.898 461.145 461.479 465.951 464.533 469.307C461.515 472.876 458.023 476.136 454.725 479.453C450.874 476.24 447.433 472.373 443.986 468.741C447.313 465.599 450.533 462.33 453.789 459.116Z"/>
	<path fill="#776D59" d="M454.439 241.106C458.362 241.895 462.894 248.128 465.523 251.012C462.457 254.566 459.05 257.837 455.746 261.168C451.731 258.346 448.29 254.176 444.997 250.562C448.064 247.343 451.303 244.26 454.439 241.106Z"/>
	<path fill="#776D59" d="M369.21 352.258C373.936 355.276 375.956 373.754 378.245 379.596C376.035 378.739 374.014 377.488 371.959 376.316C371.367 378.422 370.522 380.434 369.716 382.465L369.159 382.484C368.077 380.814 367.688 378.307 367.155 376.385C365.114 377.601 362.876 378.521 360.714 379.508C364.817 369.718 363.723 362.249 369.21 352.258Z"/>
	<path fill="#776D59" d="M538.993 352.242C539.327 352.43 539.478 352.486 539.76 352.812C542.174 355.601 545.598 367.987 545.532 371.666C545.48 374.513 546.979 375.861 547.515 378.452L546.992 378.986C545.051 378.664 543.344 377.356 541.686 376.342L539.701 382.151L539.346 382.303L538.568 381.871C537.645 380.124 537.417 378.257 537.078 376.333C534.859 377.633 532.546 378.591 530.173 379.57C534.692 369.734 533.199 362.458 538.993 352.242Z"/>
	<path fill="#776D59" d="M659.803 516.212Q693.935 515.848 728.065 516.335C729.848 516.354 731.728 516.284 733.044 517.622C731.908 518.52 730.679 518.508 729.269 518.562C711.85 519.222 694.229 518.688 676.793 518.691L577.67 518.706L279.602 518.737L229.483 518.711C223.343 518.704 216.486 519.441 210.427 518.859C208.621 518.685 206.634 518.206 205.083 517.258L205.298 516.894C212.642 515.41 233.661 516.345 242.087 516.347L327.02 516.355L659.803 516.212Z"/>
	<path fill="#776D59" d="M675.907 319.124Q692 318.993 708.092 319.174L708.03 328.159C704.913 328.114 701.779 328.226 698.661 328.268C699.113 344.761 698.419 361.313 698.703 377.815C698.726 379.165 698.554 381.147 699.523 382.092C702.097 382.877 705.349 382.451 708.045 382.375C708.073 385.414 708.28 388.575 707.882 391.591L675.463 391.554L675.468 382.302L685.1 382.349C684.866 364.333 685.108 346.282 685.124 328.261L675.883 328.011L675.907 319.124Z"/>
	<path fill="#776D59" d="M19.1225 321.924C30.5439 322.555 42.2369 322.076 53.6793 322.066Q53.6822 326.462 53.6343 330.858C50.2166 330.459 46.5955 330.806 43.1575 330.909Q42.9061 359.12 43.4058 387.327L68.7847 387.306C67.9872 380.223 68.6704 372.365 68.7992 365.199L80.014 365.279L80.1279 374.477L80.3496 396.476Q49.6368 396.624 18.9246 396.375C18.9151 393.347 19.0142 390.311 19.0638 387.283C22.5513 387.322 26.042 387.293 29.5299 387.296C29.553 368.553 29.1372 349.688 29.7078 330.96Q24.3676 330.689 19.0231 330.521L19.1225 321.924Z"/>
	<path fill="#776D59" d="M609.625 319.101C629.886 319.458 650.195 319.109 670.464 319.201Q670.54 329.207 670.758 339.212C667.091 339.047 663.399 339.08 659.727 339.032Q659.626 333.501 659.624 327.97L633.145 328.004C633.172 335.08 633.019 342.164 632.939 349.24Q641.168 349.36 649.397 349.304L649.496 342.092C651.691 342.082 653.891 342.152 656.086 342.194Q656.19 353.112 656.054 364.029C655.972 364.729 655.862 364.755 655.457 365.292C653.596 365.877 651.362 365.586 649.423 365.546L649.282 359.082C643.815 358.91 638.357 358.955 632.888 359.006Q632.977 370.707 632.938 382.409L643.081 382.448C643.067 385.499 643.209 388.563 643.284 391.613C631.857 391.425 620.407 391.554 608.976 391.537C609.298 388.505 609.364 385.499 609.408 382.452L619.208 382.49C619.015 364.327 619.125 346.147 619.194 327.983L609.096 327.855Q609.422 323.482 609.625 319.101Z"/>
	<path fill="#776D59" d="M237.929 321.843C259.479 322.238 281.158 321.95 302.713 321.774Q302.488 334.997 302.807 348.218L293.092 347.595C292.623 342.078 292.655 336.517 292.584 330.983L277.35 330.953C277.791 338.181 277.538 345.507 277.545 352.749L277.684 387.279L284.211 387.472C284.675 387.476 285.142 387.477 285.605 387.502C286.655 387.558 287.408 387.75 288.114 388.582C289.437 390.14 288.786 394.442 288.694 396.463C276.676 396.462 264.587 396.723 252.58 396.255C252.58 393.268 252.674 390.275 252.726 387.288C256.3 387.573 259.937 387.483 263.521 387.52C263.053 381.6 263.487 375.302 263.503 369.351Q263.646 350.148 263.347 330.946L248.181 330.978L248.188 347.645C244.732 347.429 241.267 347.294 237.808 347.12C237.745 338.699 237.884 330.265 237.929 321.843Z"/>
	<path fill="#776D59" d="M556.626 239.872C557.015 242.949 555.626 246.616 557.352 249.436C559.742 251.182 562.56 250.596 565.347 250.405C562.375 254.401 559.295 257.783 555.5 261.011C552.919 261.016 550.358 261.156 547.783 261.312C543.29 264.435 539.315 270.066 535.671 274.215L516.963 295.491C496.417 318.826 475.287 341.734 455.109 365.378C457.743 367.819 460.077 370.835 462.469 373.529L476.641 389.505L518.14 436.282C523.923 442.834 529.415 449.729 535.364 456.121C539.38 460.435 546.385 459.792 550.041 464.034C552.907 467.36 554.942 471.733 557.161 475.513C559.567 479.611 562.19 483.39 565.124 487.127C556.854 481.546 547.468 477.573 539.898 470.953C538.76 467.531 538.141 463.686 536.134 460.63C531.708 453.893 520.531 442.761 514.674 436.03L453.838 366.846C447.531 374.662 440.297 381.991 433.577 389.479L392.345 435.595C386.116 442.633 378.376 449.63 373.175 457.427C370.881 460.868 369.866 464.822 368.733 468.746C363.358 474.048 355.616 478.261 349.146 482.102L344.615 484.706C349.228 476.317 353.854 467.535 360.027 460.17C363.877 459.201 368.17 458.252 371.363 455.773C378.091 450.551 390.734 435.02 396.919 428.053L452.247 365.44C444.151 356.833 436.588 347.535 428.768 338.656C406.49 313.366 384.451 287.695 361.638 262.902C358.594 262.615 355.515 262.774 352.462 262.845C348.143 259.407 344.505 255.032 341.482 250.438C344.911 250.757 348.381 250.596 351.82 250.539Q351.75 245.893 351.492 241.254C355.465 244.774 359.167 248.376 362.692 252.342C362.614 255.399 362.132 259.059 363.64 261.824C366.133 266.394 374.378 273.946 378.093 278.307C402.759 307.263 428.484 335.4 453.753 363.836C475.065 338.868 497.426 314.716 519.17 290.117C527.916 280.221 537.023 270.409 545.278 260.105C545.656 256.872 545.709 253.584 545.856 250.333C548.669 246.432 552.874 242.86 556.626 239.872Z"/>
	<path fill="#776D59" d="M216.777 321.837L226.776 321.875L226.692 344.463C223.678 344.107 220.464 344.325 217.424 344.325C216.719 341.33 216.1 338.736 213.793 336.515C210.615 333.455 206.067 332.103 201.713 332.176C198.035 332.239 194.026 333.458 191.504 336.252C190.196 337.701 189.427 339.549 189.594 341.515C190.316 350.046 208.027 353.348 214.423 355.817C218.114 357.242 221.822 359.133 224.77 361.809C228.467 365.165 230.616 369.677 230.815 374.673Q230.857 375.648 230.803 376.623Q230.749 377.597 230.6 378.562Q230.452 379.526 230.209 380.472Q229.967 381.417 229.633 382.334Q229.3 383.251 228.878 384.131Q228.456 385.012 227.951 385.846Q227.445 386.681 226.86 387.462Q226.275 388.244 225.617 388.964C217.782 397.429 204.8 397.753 194.678 393.854C193.075 393.236 189.558 390.961 188.1 391.004C188.403 391.684 188.773 392.413 188.957 393.134C189.264 394.334 188.685 394.96 188.094 395.917C184.457 396.846 181.321 396.42 177.682 395.826C177.421 387.563 177.279 379.203 178.079 370.966C181.31 370.916 184.551 370.985 187.782 371.002C188.927 376.117 190.225 380.232 194.853 383.355C198.62 385.898 203.513 386.956 207.968 385.923C211.726 385.051 214.951 382.5 216.848 379.159C217.86 377.378 218.379 375.414 217.714 373.416C214.902 364.96 196.103 361.954 188.904 358.546C184.11 356.278 179.944 352.724 178.201 347.576C176.709 343.171 177.008 337.078 179.105 332.913C181.458 328.239 186.018 325.121 190.903 323.557C199.711 320.739 207.96 322.473 215.974 326.598L216.777 321.837Z"/>
	<path fill="#776D59" d="M715.038 319.106C723.817 319.117 733.142 318.458 741.829 319.445C744.81 323.534 747.269 328.183 749.856 332.536L763.194 355.001C765.253 358.473 767.241 362.002 769.384 365.421C770.549 367.279 772.155 369.205 773.096 371.166C773.346 371.687 773.373 372.135 773.43 372.699C773.475 372.604 773.524 372.51 773.565 372.413C774.438 370.347 774.104 329.496 773.658 328.332C770.153 328.409 766.618 328.269 763.111 328.228C763.189 328.103 763.281 327.986 763.345 327.853C764.336 325.773 763.987 321.25 763.131 319.15L794.498 319.214C795.565 321.594 795.577 325.642 794.836 328.137C791.189 327.85 787.295 328.197 783.628 328.311C784.018 329.052 784.321 329.628 784.395 330.477C785.215 339.885 784.468 349.957 784.439 359.42C784.407 369.894 784.99 380.63 784.536 391.071C783.196 391.908 781.03 391.592 779.48 391.576C776.567 391.691 773.637 391.513 770.725 391.402C770.465 388.98 739.2 338.658 735.512 333.146C736.877 349.423 735.861 365.972 735.636 382.29L746.123 382.412L746.265 391.606L714.829 391.553C714.865 388.481 714.965 385.407 715.034 382.335L725.414 382.344C724.522 375.369 724.96 367.74 725.003 360.69Q725.075 344.54 725.339 328.392L714.97 328.142L715.038 319.106Z"/>
	<path fill="#776D59" d="M826.735 318.869C839.619 318.352 854.51 319.009 864.785 327.685C872.149 333.903 875.815 342.551 876.521 352.054C877.23 361.607 874.887 372.166 868.467 379.513C860.221 388.951 849.325 390.803 837.487 391.524C824.932 391.9 812.458 391.722 799.903 391.437C799.978 391.278 800.06 391.122 800.13 390.961C801.024 388.905 801.171 384.466 800.248 382.4L810.913 382.498C811.131 382.042 811.144 382.044 811.327 381.516C811.908 379.837 811.712 334.514 811.446 329.828C811.408 329.143 811.231 328.687 810.945 328.075C807.499 328.409 803.755 328.037 800.281 327.967C800.525 327.579 800.727 327.249 800.849 326.803C801.437 324.655 801.46 321.083 800.376 319.115Q813.558 319.285 826.735 318.869ZM824.701 328.095C824.974 328.714 825.187 329.188 825.287 329.864C825.951 334.374 825.823 379.914 824.89 382.331C824.846 382.447 824.782 382.554 824.728 382.666C832.52 382.537 849.264 383.31 854.428 376.355C854.669 376.03 854.68 375.909 854.781 375.568C858.602 373.053 860.788 367.388 861.686 363.076C863.366 355.016 862.378 345.199 857.698 338.251C854.066 332.859 848.742 329.609 842.396 328.416C837.12 327.423 830.017 327.193 824.701 328.095Z"/>
	<path fill="#776D59" d="M121.563 322.331C131.898 321.028 143.505 323.434 152.072 329.431Q152.792 329.935 153.485 330.475Q154.179 331.014 154.844 331.588Q155.51 332.162 156.146 332.768Q156.782 333.374 157.387 334.011Q157.992 334.648 158.564 335.315Q159.137 335.982 159.675 336.676Q160.213 337.371 160.716 338.091Q161.219 338.812 161.685 339.557Q162.151 340.302 162.58 341.069Q163.008 341.836 163.397 342.624Q163.787 343.411 164.136 344.218Q164.486 345.024 164.795 345.846Q165.104 346.669 165.371 347.506Q165.638 348.343 165.863 349.193Q166.088 350.042 166.271 350.902Q166.453 351.761 166.592 352.629C168.236 362.36 165.977 372.915 160.161 380.943C153.557 390.061 143.966 394.156 133.17 395.906C121.953 397.28 109.695 395.238 100.61 388.164C92.8915 382.154 88.1947 373.407 87.0685 363.727C85.918 353.838 88.5637 343.593 94.8283 335.792C101.576 327.391 111.09 323.543 121.563 322.331ZM125.652 331.998C118.046 332.933 111.807 335.881 107.031 342.059C102.303 348.174 100.951 356.381 102.001 363.909C102.967 370.838 106.405 377.214 112.063 381.416C116.388 384.629 122.177 386.393 127.568 386.146C134.874 385.494 141.214 383.256 146.03 377.457C151.129 371.317 152.878 363.241 152.058 355.421C151.329 348.456 148.12 341.63 142.586 337.219C137.835 333.431 131.687 331.716 125.652 331.998Z"/>
	<path fill="#776D59" d="M507.807 556.073L543.869 556.029C551.045 556.026 558.333 555.777 565.489 556.275C569.197 559.353 572.555 563.236 575.902 566.707C580.424 571.398 585.186 576.004 589.312 581.05C589.767 590.502 589.625 600.138 589.474 609.603L571.396 609.596Q571.202 600.094 571.282 590.59C567.137 585.339 561.991 580.233 557.071 575.701L516.705 575.726C512.557 579.692 508.621 583.949 504.693 588.134C504.097 609.173 504.483 630.284 504.446 651.334C504.421 665.63 503.5 680.385 504.91 694.611C508.745 698.697 512.651 702.818 516.786 706.601C530.233 706.429 543.694 706.529 557.142 706.527Q564.566 699.243 571.5 691.491C571.287 682.63 571.49 673.741 571.55 664.878C571.7 662.319 571.468 659.638 571.398 657.07Q555.871 657.218 540.344 657.073Q540.437 647.856 540.42 638.638L589.128 638.594C589.822 658.904 589.27 680.355 589.399 700.828C582.361 709.626 573.78 717.246 566.385 725.782C557.072 726.882 547.298 726.495 537.932 726.501C527.988 726.508 517.802 726.839 507.889 725.979C501.858 721.373 489.34 707.286 484.466 701.027C483.273 695.124 484.121 688.592 484.188 682.576L484.233 656.308L484.119 611.755C484.02 601.517 483.096 591.039 484.531 580.872C490.544 573.103 500.555 562.844 507.807 556.073Z"/>
	<path fill="#776D59" d="M622.813 556.102C658.009 556.5 693.259 555.463 728.44 556.21C729.578 562.346 728.859 568.823 728.776 575.03Q728.605 588 728.721 600.971C722.802 600.712 716.826 600.884 710.9 600.901L710.988 574.558C704.988 574.86 698.867 574.611 692.856 574.606L658.747 574.559L658.837 632.47L711.2 632.378C710.885 638.474 711.091 644.673 711.078 650.782C693.644 650.654 676.193 651.09 658.761 650.761L658.735 693.337L658.636 707.98C676.057 707.794 693.537 707.63 710.956 707.917C710.248 699.193 710.771 690.194 710.997 681.441C716.887 681.626 722.794 681.376 728.694 681.556Q728.546 703.958 728.883 726.357C716.339 726.748 703.699 726.44 691.145 726.431L622.44 726.403C621.646 720.133 622.133 713.984 622.454 707.695C627.67 707.585 632.908 707.711 638.126 707.747C637.824 689.979 638.151 672.169 638.206 654.397Q638.364 614.448 638.084 574.499C632.961 574.672 627.875 574.979 622.778 574.301C621.861 568.88 621.483 561.431 622.813 556.102Z"/>
	<path fill="#776D59" d="M363.375 556.086C383.25 555.805 403.246 555.422 423.108 556.318C423.295 562.373 423.252 568.444 423.287 574.502L412.986 574.494C415.267 582.741 417.973 590.824 420.376 599.029Q428.869 628.93 437.675 658.741C442.482 675.088 447.539 691.337 451.964 707.797L463.131 707.688C463.309 713.85 463.206 720.03 463.196 726.194C447.464 726.086 431.645 725.78 415.927 726.466C415.587 720.251 415.747 713.981 415.755 707.757L431.389 707.779C429.419 702.066 422.882 675.824 420.914 673.124L420.013 673.253L386.486 673.277C379.582 673.276 372.404 673.658 365.551 672.831C361.338 684.234 358.555 696.229 355.113 707.887Q362.905 707.699 370.698 707.802C370.98 714.028 371.236 720.197 370.601 726.411C354.87 725.859 338.962 726.176 323.221 726.357C322.961 721.924 322.311 716.504 322.676 712.14C322.787 710.814 323.119 709.355 324.251 708.519C326.698 706.712 331.591 707.658 334.436 707.922C339.01 690.975 344.386 674.252 349.282 657.396C357.307 629.773 365.079 602.012 373.599 574.539L363.145 574.458C363.087 568.345 363.092 562.193 363.375 556.086ZM393.014 579.581C389.099 589.888 386.454 600.585 383.464 611.183Q377.266 633.059 370.448 654.749C377.957 654.267 385.582 654.506 393.108 654.489C400.606 654.493 408.398 654.057 415.859 654.74C412.984 645.475 395.531 582.468 393.014 579.581Z"/>
	<path fill="#776D59" d="M306.149 31.2631C317.674 31.218 329.509 30.6565 341.005 31.4126C340.537 68.843 341.25 106.289 340.709 143.72L355.523 143.68L355.592 162.593C350.64 162.479 345.663 162.607 340.709 162.638C341.137 170.722 341.189 179.162 340.67 187.24C346.156 187.287 351.647 187.228 357.134 187.217C357.433 193.63 357.389 200.023 357.334 206.44C338.495 206.707 319.496 206.775 300.662 206.337C300.526 201.258 300.608 196.155 300.596 191.073C300.625 189.629 300.438 188.665 301.344 187.513C306.999 186.554 313.681 187.223 319.437 187.223C319.154 179.055 319.404 170.785 319.408 162.607L237.808 162.583C237.52 156.333 236.483 149.173 238.642 143.179C240.538 137.912 244.182 132.903 247.13 128.159Q253.491 117.964 259.702 107.677L289.213 58.227C294.671 49.1967 299.996 39.822 306.149 31.2631ZM318.834 49.1359C312.915 58.8108 262.161 140.861 262.494 143.474L262.816 143.74L319.465 143.73L319.423 84.269C319.446 73.7316 319.906 63.0428 319.487 52.5199C319.446 51.4896 319.551 49.9599 318.834 49.1359Z"/>
	<path fill="#776D59" d="M608.806 31.2285L643.806 31.1946L643.789 143.603L658.44 143.628C658.748 150.056 658.46 156.579 658.39 163.016C653.479 162.599 648.6 162.93 643.687 162.752C643.8 170.918 643.72 179.098 643.728 187.265C649.186 187.356 654.656 187.262 660.114 187.24L660.412 206.465L603.56 206.442C603.42 202.055 603.529 197.665 603.595 193.277L603.783 187.295Q613.051 187.437 622.319 187.32L622.296 162.938C595.123 162.205 567.813 162.642 540.627 162.617C540.406 156.61 539.351 149.261 541.422 143.497C543.556 137.559 547.495 132.145 550.787 126.784L562.118 108.115C577.557 82.457 592.483 56.3338 608.806 31.2285ZM621.641 49.5879L580.734 117.272C577.194 123.097 566.984 137.58 565.188 143.072L565.654 143.627L622.259 143.698C622.28 134.574 622.934 50.9719 621.641 49.5879Z"/>
	<path fill="#776D59" d="M208.788 556.118L268.288 555.899C277.996 555.92 288.446 555.324 298.056 556.731C304.568 561.332 315.151 574.555 320.772 580.973C321.122 586.873 320.863 592.938 320.863 598.854L320.784 634.097C317.932 637.845 314.334 641.277 311.138 644.752C306.681 649.6 302.382 654.613 297.714 659.26C279.994 659.753 262.157 659.248 244.42 659.363C245.144 668.344 244.651 677.718 244.626 686.744Q244.746 697.352 244.484 707.958L262.407 707.9C262.501 714.062 262.441 720.218 262.741 726.377C255.236 725.854 247.373 726.355 239.819 726.358C229.316 726.362 218.783 725.996 208.288 726.386L208.364 707.911C213.544 707.594 218.796 707.793 223.985 707.837C223.223 692.805 223.906 677.449 223.927 662.381L224.086 574.471Q216.245 574.525 208.404 574.451C208.21 568.659 207.359 561.783 208.788 556.118ZM244.644 575.714C244.303 596.953 244.699 618.237 244.66 639.484C259.256 639.48 273.887 639.694 288.479 639.443Q291.992 636.045 295.387 632.529C297.467 630.324 299.605 628.154 301.631 625.901C301.626 613.694 301.723 601.508 301.471 589.301C297.733 584.769 293.247 579.2 288.458 575.801C273.856 575.72 259.243 575.903 244.644 575.714Z"/>
	<path fill="#776D59" d="M436.109 30.9973C453.409 30.5658 471.057 30.8497 488.36 31.3895C491.981 34.3668 495.212 38.1741 498.461 41.577C503.176 46.5141 508.072 51.3886 512.478 56.6033C512.942 75.1144 512.584 93.7307 512.612 112.252C512.646 134.957 512.987 157.711 512.617 180.411C506.343 188.692 496.009 198.176 488.635 206.021C483.647 206.692 478.539 206.508 473.511 206.523L423.41 206.37C418.686 203.308 402.523 185.263 398.436 180.145C397.37 161.627 398.137 141.308 398.148 122.64C398.16 100.925 397.517 78.9858 398.351 57.2981C403.943 48.7753 415.141 38.5532 422.602 31.2823L436.109 30.9973ZM432.651 51.5065C427.827 55.8097 423.173 60.5546 418.735 65.2592Q418.283 118.968 418.532 172.676Q425.271 179.24 431.869 185.944L478.525 185.961C483.507 182.881 488.217 176.883 492.306 172.649C492.068 136.986 492.695 101.29 492.196 65.6341C488.878 60.4919 483.282 55.6824 478.807 51.5347C463.437 51.4463 448.019 51.2431 432.651 51.5065Z"/>
	<path fill="#776D59" d="M443.887 105.11C451.68 105.331 459.556 105.109 467.355 105.096C467.519 114.374 467.386 123.674 467.362 132.954C464.58 134.198 447.872 133.279 443.667 133.187C443.152 123.943 443.714 114.378 443.887 105.11Z"/>
</svg>
