<svg width="24" height="24" viewBox="0 0 24 24" fill="none" xmlns="http://www.w3.org/2000/svg">
<path d="M17.1443 19.9279H6.85304C5.18507 19.9279 3.82812 18.571 3.82812 16.9031V8.46227C3.82812 6.79445 5.18507 5.4375 6.85304 5.4375H17.1443C18.8121 5.4375 20.169 6.79445 20.169 8.46227V16.9031C20.169 18.571 18.8121 19.9279 17.1443 19.9279V19.9279ZM6.85304 6.30216C5.66188 6.30216 4.69279 7.27124 4.69279 8.46227V16.9031C4.69279 18.0942 5.66188 19.0633 6.85304 19.0633H17.1443C18.3353 19.0633 19.3044 18.0942 19.3044 16.9031V8.46227C19.3044 7.27125 18.3353 6.30216 17.1443 6.30216H6.85304Z" fill="black"/>
<path d="M19.7401 10.642H4.75264C4.51382 10.642 4.32031 10.4485 4.32031 10.2097C4.32031 9.97085 4.51382 9.77734 4.75264 9.77734H19.7401C19.979 9.77734 20.1725 9.97085 20.1725 10.2097C20.1725 10.4485 19.979 10.642 19.7401 10.642Z" fill="black"/>
<path d="M8.82295 7.54539C8.58413 7.54539 8.39062 7.35188 8.39062 7.11306V4.50655C8.39062 4.26773 8.58413 4.07422 8.82295 4.07422C9.06177 4.07422 9.25528 4.26773 9.25528 4.50655V7.11306C9.25528 7.35188 9.06177 7.54539 8.82295 7.54539Z" fill="black"/>
<path d="M15.0105 7.54539C14.7716 7.54539 14.5781 7.35188 14.5781 7.11306V4.50655C14.5781 4.26773 14.7716 4.07422 15.0105 4.07422C15.2493 4.07422 15.4428 4.26773 15.4428 4.50655V7.11306C15.4428 7.35188 15.2493 7.54539 15.0105 7.54539Z" fill="black"/>
</svg>
