<?xml version="1.0" encoding="utf-8" ?>
<svg xmlns="http://www.w3.org/2000/svg" xmlns:xlink="http://www.w3.org/1999/xlink" width="356" height="356">
	<path fill="#FE662F" transform="matrix(1.39062 0 0 -1.39062 0 356)" d="M125.3 4.10643C130.004 3.89051 134.725 4.3088 139.402 4.76297C146.12 5.4154 152.945 6.35767 159.5 7.99558C172.707 11.2957 185.877 17.4644 197.117 25.076C200.386 27.2893 203.648 29.4686 206.639 32.0522C213.199 37.7194 219.632 44.1001 225.04 50.8797C240.447 70.1934 249.625 93.741 251.387 118.375C252.327 131.513 251.337 145.615 248.187 158.426C243.791 176.306 234.762 193.467 222.699 207.346C220.147 210.283 217.321 213.024 214.583 215.789C212.072 218.325 209.541 221.02 206.794 223.301C192.672 235.028 174.844 244.16 156.968 248.396C148.447 250.415 139.623 251.344 130.9 251.939C104.912 252.315 78.7753 244.268 57.4103 229.47C53.7789 226.955 50.2044 224.448 46.941 221.453C41.2894 216.265 35.8257 210.818 31.0318 204.817C14.4823 184.103 5.18668 158.737 4.08823 132.284C3.31115 113.571 7.33305 94.8468 14.8018 77.7568C16.8212 73.1361 18.9418 68.5746 21.5326 64.2405C25.8188 57.0698 31.0347 50.4162 36.6835 44.2819C52.3116 27.3106 72.5816 14.3624 94.968 8.375C104.626 5.79178 115.324 4.51652 125.3 4.10643Z"/>
	<path fill="#FEFEFE" transform="matrix(1.39062 0 0 -1.39062 0 356)" d="M104.095 70.3122L106.726 70.2426C110.547 70.303 114.046 72.2917 116.63 74.9838C119.239 77.7006 121.903 82.3948 121.818 86.2266C121.708 91.2553 117.612 95.5123 114.377 98.929C112.261 101.163 110.133 103.454 107.857 105.526L99.6923 112.754L100.055 112.735C106.693 112.42 113.548 112.747 120.206 112.831L149.007 112.903L181.133 112.891C187.485 112.881 194.263 112.451 200.568 113.187C202.798 113.447 204.968 114.268 206.625 115.82C209.42 118.437 211.741 123.106 211.838 126.884C211.942 130.885 209.484 136.099 206.677 138.943C204.728 140.917 201.966 141.381 199.335 141.697C195.509 142.158 191.589 142.016 187.74 142.014L171.274 142.026L115.903 142.422L99.8243 141.363C102.373 144.533 105.374 147.162 108.294 149.97L114.189 156.12C117.106 159.268 119.783 162.38 121.171 166.522C122.235 169.694 121.354 172.915 119.894 175.823C118.194 179.209 114.199 182.823 110.592 183.993C107.595 184.966 104.37 185.025 101.536 183.555C99.4554 182.475 97.5364 180.931 95.7812 179.392C88.7565 173.228 82.2488 166.161 75.612 159.567L62.6743 146.545C60.1376 143.945 57.4738 141.388 55.1921 138.559C53.2982 136.211 51.7543 133.754 50.8678 130.844C49.8292 127.434 50.4894 123.488 52.1736 120.403C54.9507 115.318 59.8968 110.87 63.9656 106.773L75.615 95.0208L88.5755 82.0432C91.2244 79.4488 93.883 76.7434 96.7803 74.429C99.078 72.5935 101.264 71.1524 104.095 70.3122Z"/>
</svg>
