<?xml version="1.0" encoding="utf-8" ?>
<svg xmlns="http://www.w3.org/2000/svg" xmlns:xlink="http://www.w3.org/1999/xlink" width="256" height="256">
	<path fill="#C8D1D3" d="M125.411 4.36011L126.101 4.33929C136.004 4.09558 146.558 4.90226 156.229 7.1278C161.238 8.28029 166.111 10.0336 170.905 11.8623C186.314 17.7399 199.992 25.9904 211.953 37.4061C226.277 51.0776 237.338 67.536 244.169 86.1292C245.368 89.3913 246.609 92.6537 247.495 96.0184C249.875 105.062 250.959 114.416 251.155 123.748C251.413 136.04 250.215 148.997 247.005 160.886C245.959 164.763 244.472 168.521 242.997 172.25C238.845 182.747 233.799 192.288 226.911 201.256C223.493 205.707 219.537 209.82 215.658 213.867C212.132 217.546 208.48 221.178 204.539 224.414C194.224 232.883 182.52 239.24 170.069 243.972C165.684 245.638 161.448 247.262 156.875 248.372C148.309 250.453 139.244 251.362 130.438 251.547C121.17 251.543 111.715 250.848 102.625 248.969C82.4266 244.792 62.7797 234.874 47.5087 221.011C40.9574 215.064 34.3075 208.411 28.9062 201.386C14.352 182.455 5.67167 158.341 4.57707 134.5C4.26826 127.774 4.24429 120.85 4.95969 114.149C7.7517 87.9983 19.4037 63.2585 37.094 43.9145C45.9605 34.2192 56.7019 25.5892 68.3071 19.3686C71.6524 17.5754 75.1335 16.1229 78.6103 14.6152C83.6257 12.4403 88.5544 10.4856 93.8372 9.02408C98.0622 7.85519 102.37 7.18167 106.692 6.48478C112.957 5.47462 119.065 4.64577 125.411 4.36011Z"/>
	<path fill="#FEFEFE" d="M103.661 70.2706L107.306 70.242C110.721 70.3179 114.412 72.5234 116.708 74.9455C119.464 77.8532 122.174 82.4862 122.019 86.6353C121.74 94.1291 105.632 107.742 100.334 112.618C102.481 112.188 104.869 112.438 107.058 112.482L119.759 112.752L175.731 112.961L192.96 113.037C195.887 113.086 199.437 112.933 202.276 113.675L202.5 113.735C204.123 114.159 205.639 114.975 206.868 116.125C209.7 118.777 211.881 122.973 211.942 126.875C212.007 131.068 209.655 136.415 206.713 139.357C205.226 140.845 203.608 141.35 201.586 141.629C197.546 142.186 193.31 142.012 189.233 142.054L171.076 142.224L116.812 142.505L100.433 142.204L100.617 142.324C102.15 143.34 103.517 144.81 104.844 146.088L113.094 154.653C114.921 156.632 116.981 158.564 118.575 160.734C119.846 162.463 121.165 164.553 121.591 166.689L121.625 166.865C122.181 169.65 121.486 172.602 120.272 175.125C118.698 178.395 114.758 182.817 111.24 183.994C108.125 185.036 104.47 185.275 101.498 183.755C98.7601 182.355 96.2323 180.043 94.0135 177.95L85.6309 169.678L71.4003 155.375C65.8748 149.757 59.8427 144.269 54.8729 138.149C52.8638 135.675 51.068 133.05 50.0737 129.991C49.2774 127.541 49.6487 124.213 50.8026 121.927C51.891 119.771 53.5306 117.878 55.0459 116.017C60.5923 109.206 67.2503 103.173 73.4179 96.9259L87.2999 83.0185C90.4669 79.9234 93.6982 76.7183 97.1724 73.9727C99.1894 72.3787 101.211 71.1036 103.661 70.2706Z"/>
</svg>
