<?xml version="1.0" encoding="utf-8" ?>
<svg xmlns="http://www.w3.org/2000/svg" xmlns:xlink="http://www.w3.org/1999/xlink" width="256" height="256">
	<path fill="#C8D1D3" d="M125.469 4.35959L126.112 4.3423C136.065 4.10448 146.54 5.0344 156.25 7.25407C161.159 8.37639 165.86 10.0376 170.568 11.7944C185.834 17.4918 199.958 25.8184 211.762 37.1277C216.28 41.456 220.756 46.0243 224.641 50.9378C232.936 61.4284 239.467 73.4222 244.092 85.9342C245.322 89.2622 246.64 92.5821 247.553 96.016C249.969 105.101 251.017 114.579 251.216 123.96C251.496 137.201 250.031 151.096 246.254 163.819C245.233 167.258 243.8 170.705 242.428 174.018C238.484 183.548 233.633 192.484 227.387 200.714C223.917 205.287 219.862 209.598 215.886 213.739C212.007 217.779 207.992 221.725 203.617 225.229C193.976 232.95 183.195 238.848 171.738 243.39C166.912 245.304 162.104 247.102 157.048 248.328C148.503 250.399 139.408 251.32 130.628 251.494C100.215 251.927 70.085 241.503 47.4457 220.951C41.1165 215.206 34.5933 208.666 29.3598 201.909C14.3423 182.521 5.92094 158.386 4.71775 133.963C4.20237 123.501 4.82902 112.813 6.92539 102.534C11.234 81.4085 21.6152 61.2319 36.0741 45.2996C45.2108 35.2319 55.6516 26.4902 67.5782 19.8746C71.252 17.8368 75.1199 16.154 78.9721 14.4886C83.5525 12.5084 88.1073 10.655 92.9191 9.28531C97.4774 7.98776 102.144 7.23364 106.816 6.47843C113.065 5.46798 119.139 4.66591 125.469 4.35959Z"/>
	<path fill="#FEFEFE" d="M152.559 69.807C153.415 69.7757 154.274 69.7263 155.098 69.9989C157.618 70.8323 159.797 72.3738 161.859 74.0053C169.205 79.8177 175.692 86.7912 182.34 93.375L196.142 107.238C200.279 111.485 205.368 116.309 208.058 121.64C209.481 124.458 210.23 127.339 209.202 130.427C208.064 133.843 205.351 137.152 203.039 139.867C197.117 146.823 190.18 153.067 183.703 159.495L169.155 173.947C165.816 177.188 162.001 181.447 157.774 183.517C155.207 184.774 151.377 184.768 148.702 183.818C144.491 182.321 140.679 177.931 138.829 173.96C137.559 171.235 137.031 169.098 138.049 166.229C139.417 162.375 142.104 159.386 144.839 156.446C149.218 151.738 154.069 147.553 158.27 142.685L147.229 142.47L83.7281 142.206L68.5131 142.082C65.6184 142.058 62.6459 142.166 59.7624 141.936C58.1348 141.807 56.5107 141.504 55.0435 140.755C51.9071 139.154 49.273 134.951 48.2669 131.679C47.1483 128.041 47.6627 123.918 49.4448 120.575C50.7402 118.145 53.4743 114.752 56.2472 113.941C59.7829 112.907 63.8594 113.159 67.5292 113.106L84.2124 112.995L123.362 112.782L146.995 112.361L158.395 111.96C156.901 109.898 154.711 108.203 152.875 106.449L145.545 99.0287C143.725 97.1236 141.861 95.2641 140.369 93.0815C138.874 90.8935 136.897 87.2486 137.431 84.5146C137.876 82.2317 139.233 79.919 140.548 78.0098C143.316 73.9919 147.705 70.6863 152.559 69.807Z"/>
</svg>
