<?xml version="1.0" encoding="utf-8" ?>
<svg xmlns="http://www.w3.org/2000/svg" xmlns:xlink="http://www.w3.org/1999/xlink" width="282" height="282">
	<path fill="#FE662F" transform="scale(1.10156 1.10156)" d="M125.935 4.11298C130.978 3.86474 136.195 4.31274 141.212 4.85787C147.255 5.5146 153.315 6.37449 159.218 7.85655C172.535 11.2002 185.699 17.3862 197.064 25.0176C200.779 27.5122 204.426 30.016 207.776 32.9926C213.92 38.45 220.02 44.4737 225.131 50.9225C240.621 70.4655 250.083 94.7612 251.516 119.675C252.279 132.929 251.28 146.612 247.989 159.5C243.487 177.125 234.166 194.58 222.047 208.133C217.528 213.187 212.43 218.565 207.269 222.926C205.184 224.687 202.919 226.224 200.715 227.828C188.111 236.999 173.732 244.067 158.588 247.912C149.36 250.255 139.804 251.391 130.312 251.912C104.91 252.663 78.0149 243.635 57.2092 229.289C53.5008 226.732 49.8103 224.114 46.4998 221.048C40.9039 215.865 35.473 210.45 30.7275 204.468C14.7076 184.271 5.21788 158.56 4.2304 132.814C3.50295 113.848 7.10914 95.5008 14.6529 78.125C16.921 72.9008 19.3779 67.717 22.3889 62.8737C26.7013 55.9368 31.9311 49.4893 37.4777 43.5127C52.9762 26.8123 73.2579 14.2472 95.3552 8.38745C100.117 7.1248 105.091 6.38816 109.963 5.70323C115.305 4.95208 120.539 4.3169 125.935 4.11298Z"/>
	<path fill="#FEFEFE" transform="scale(1.10156 1.10156)" d="M151.421 70.0628C154.524 69.8528 157.007 70.5694 159.601 72.2898C162.334 74.1018 164.853 76.51 167.269 78.7273L182.693 93.9606L194.548 105.795C198.413 109.665 202.227 113.465 205.478 117.886C207.32 120.39 208.796 123.144 209.4 126.22C210.128 129.919 207.785 133.782 205.775 136.724C203.676 139.795 200.933 142.502 198.35 145.165L184.553 158.869L170.911 172.478C168.019 175.327 165.113 178.363 161.921 180.873C159.848 182.502 157.734 183.862 155.101 184.348C151.449 185.023 148.48 183.809 145.5 181.764C141.525 179.035 138.927 175.295 138.082 170.502C137.016 164.462 143.091 158.345 146.853 154.436L153.223 148.058C155.347 146.078 157.824 144.064 159.482 141.677L149.866 142.237L102.134 142.113L76.2993 142.209C71.6448 142.197 66.8769 142.375 62.2381 141.997C59.8723 141.805 57.1139 141.344 55.0181 140.163C52.2048 138.579 49.2517 134.968 48.4041 131.811C47.3041 127.713 48.1607 123.512 50.2789 119.917C51.7926 117.347 53.8367 114.949 56.7512 113.984C59.2499 113.157 62.0866 113.049 64.6947 112.934L76.3461 112.764L100.055 112.792L139.285 112.742L150.729 112.674C153.441 112.645 156.313 112.767 158.955 112.093C157.277 109.544 154.899 107.861 152.608 105.9C150.268 103.896 148.092 101.72 145.924 99.5339C142.731 96.3134 139.951 93.5283 138.666 89.0317C137.657 85.5003 138.55 81.7595 140.297 78.6068C142.7 74.2709 146.734 71.3959 151.421 70.0628Z"/>
</svg>
