<?xml version="1.0" encoding="utf-8"?>

<!DOCTYPE svg PUBLIC "-//W3C//DTD SVG 1.1//EN" "http://www.w3.org/Graphics/SVG/1.1/DTD/svg11.dtd">
<!-- Uploaded to: SVG Repo, www.svgrepo.com, Generator: SVG Repo Mixer Tools -->
<svg xmlns="http://www.w3.org/2000/svg" xmlns:xlink="http://www.w3.org/1999/xlink" viewBox="0 0 700 400" width="700" height="400" preserveAspectRatio="xMidYMid meet" style="width: 100%; height: 100%; transform: translate3d(0px, 0px, 0px); content-visibility: visible;">
	<defs>
		<clipPath id="__lottie_element_13">
			<rect width="700" height="400" x="0" y="0"></rect>
		</clipPath>
		<mask id="__lottie_element_15">
			<rect fill="#ffffff" width="700" height="400" transform="matrix(1,0,0,1,-241.5,-302.5)"></rect>
			<path fill="#000000" clip-rule="nonzero" d=" M254.5,-9 C254.5,-9 -66.5,-9 -66.5,-9 C-66.5,-9 -66.5,63.5 -66.5,63.5 C-66.5,63.5 254.5,63.5 254.5,63.5 C254.5,63.5 254.5,-9 254.5,-9" fill-opacity="1"></path>
		</mask>
		<mask id="__lottie_element_18">
			<rect fill="#ffffff" width="700" height="400" transform="matrix(1,0,0,1,-241.5,-302.5)"></rect>
			<path fill="#000000" clip-rule="nonzero" d=" M254.5,-9 C254.5,-9 -66.5,-9 -66.5,-9 C-66.5,-9 -66.5,63.5 -66.5,63.5 C-66.5,63.5 254.5,63.5 254.5,63.5 C254.5,63.5 254.5,-9 254.5,-9" fill-opacity="1"></path>
			<path fill="#000000" clip-rule="nonzero" d=" M6,-263.5 C7.5,-263.5 22.5,-45 22.5,-45 C22.5,-45 52,-17.5 93.5,-17.5 C135,-17.5 177,-31 177,-31 C177,-31 233.5,-243.5 233.5,-243.5 C233.5,-243.5 4.5,-263.5 6,-263.5" fill-opacity="1"></path>
		</mask>
		<mask id="__lottie_element_21">
			<rect fill="#ffffff" width="700" height="400" transform="matrix(1,0,0,1,-115.5,-317)"></rect>
			<path fill="#000000" clip-rule="nonzero" d=" M212.5,-24 C212.5,-24 -26,-24 -26,-24 C-26,-24 -26,39 -26,39 C-26,39 212.5,39 212.5,39 C212.5,39 212.5,-24 212.5,-24" fill-opacity="1"></path>
		</mask>
		<mask id="__lottie_element_24">
			<rect fill="#ffffff" width="700" height="400" transform="matrix(1,0,0,1,-115.5,-317)"></rect>
			<path fill="#000000" clip-rule="nonzero" d=" M212.5,-24 C212.5,-24 -26,-24 -26,-24 C-26,-24 -26,39 -26,39 C-26,39 212.5,39 212.5,39 C212.5,39 212.5,-24 212.5,-24" fill-opacity="1"></path>
			<path fill="#000000" clip-rule="nonzero" d=" M78,-236 C32,-234.5 35.5,-241 1,-228 C-33.5,-215 -77.5,-213 -56.5,-151.5 C-35.5,-90 -21.5,-31.5 -21.5,-31.5 C-21.5,-31.5 157,-45.5 157,-45.5 C157,-45.5 141,-145 141,-145 C141,-145 124,-237.5 78,-236" fill-opacity="1"></path>
		</mask>
		<mask id="__lottie_element_27">
			<rect fill="#ffffff" width="700" height="400" transform="matrix(1,0,0,1,-443.5,-317)"></rect>
			<path fill="#000000" clip-rule="nonzero" d=" M212.5,-24 C212.5,-24 -26,-24 -26,-24 C-26,-24 -26,39 -26,39 C-26,39 212.5,39 212.5,39 C212.5,39 212.5,-24 212.5,-24" fill-opacity="1"></path>
		</mask>
		<mask id="__lottie_element_30">
			<rect fill="#ffffff" width="700" height="400" transform="matrix(1,0,0,1,-443.5,-317)"></rect>
			<path fill="#000000" clip-rule="nonzero" d=" M212.5,-24 C212.5,-24 -26,-24 -26,-24 C-26,-24 -26,39 -26,39 C-26,39 212.5,39 212.5,39 C212.5,39 212.5,-24 212.5,-24" fill-opacity="1"></path>
			<path fill="#000000" clip-rule="nonzero" d=" M155,-235.5 C155,-235.5 97.5,-256 60.5,-229.5 C23.5,-203 8,-137 -2.5,-122.5 C-13,-108 -26.5,-52 -26.5,-52 C-26.5,-52 48.5,-35 48.5,-35 C48.5,-35 158,-41.5 158,-41.5 C158,-41.5 155,-235.5 155,-235.5" fill-opacity="1"></path>
		</mask>
		<mask id="__lottie_element_33">
			<rect fill="#ffffff" width="700" height="400" transform="matrix(1,0,0,1,-342,-209)"></rect>
			<path fill="#000000" clip-rule="nonzero" d=" M402,85 C402,85 -336,85 -336,85 C-336,85 -336,247 -336,247 C-336,247 402,247 402,247 C402,247 402,85 402,85" fill-opacity="1"></path>
		</mask>
	</defs>
	<g clip-path="url(#__lottie_element_13)">
		<g id="0" mask="url(#__lottie_element_15)" transform="matrix(1,0,0,1,241.5,302.5)" opacity="1" style="display: block;">
			<g opacity="1" transform="matrix(0.9743700623512268,0.22495105862617493,-0.22495105862617493,0.9743700623512268,0,0)">
			<path fill="rgb(255,255,255)" fill-opacity="1" d=" M108.41500091552734,-83.2969970703125 C108.31999969482422,-68.42400360107422 106.33000183105469,-57.50699996948242 102.4469985961914,-50.54499816894531 C98.56199645996094,-43.58300018310547 92.5469970703125,-40.10200119018555 84.4010009765625,-40.10200119018555 C75.96900177001953,-40.10200119018555 69.81300354003906,-43.67599868774414 65.93000030517578,-50.82899856567383 C62.04499816894531,-57.97999954223633 60.104000091552734,-69.2770004272461 60.104000091552734,-84.71800231933594 C60.104000091552734,-84.71800231933594 60.104000091552734,-137.5749969482422 60.104000091552734,-137.5749969482422 C60.38800048828125,-151.4040069580078 62.400001525878906,-161.7310028076172 66.14299774169922,-168.55099487304688 C69.88400268554688,-175.37100219726562 75.8759994506836,-178.781005859375 84.11699676513672,-178.781005859375 C92.5469970703125,-178.781005859375 98.7040023803711,-175.10899353027344 102.58899688720703,-167.7689971923828 C106.47200012207031,-160.427001953125 108.41500091552734,-149.32000732421875 108.41500091552734,-134.44900512695312 C108.41500091552734,-134.44900512695312 108.41500091552734,-83.2969970703125 108.41500091552734,-83.2969970703125z M156.2989959716797,-128.19700622558594 C156.2989959716797,-156.0469970703125 149.9980010986328,-177.5959930419922 137.4010009765625,-192.84800720214844 C124.802001953125,-208.09800720214844 107.04000091552734,-215.72500610351562 84.11699676513672,-215.72500610351562 C61.19200134277344,-215.72500610351562 43.45600128173828,-208.14500427246094 30.905000686645508,-192.99000549316406 C18.351999282836914,-177.83299255371094 12.07800006866455,-156.28199768066406 12.07800006866455,-128.33900451660156 C12.07800006866455,-128.33900451660156 12.07800006866455,-90.54299926757812 12.07800006866455,-90.54299926757812 C12.07800006866455,-62.7869987487793 18.37700080871582,-41.28499984741211 30.97599983215332,-26.03499984741211 C43.573001861572266,-10.782999992370605 61.38199996948242,-3.1579999923706055 84.4010009765625,-3.1579999923706055 C107.22899627685547,-3.1579999923706055 124.91899871826172,-10.736000061035156 137.4720001220703,-25.89299964904785 C150.0229949951172,-41.04800033569336 156.2989959716797,-62.597999572753906 156.2989959716797,-90.54299926757812 C156.2989959716797,-90.54299926757812 156.2989959716797,-128.19700622558594 156.2989959716797,-128.19700622558594z"></path>
			<path stroke-linecap="butt" stroke-linejoin="miter" fill-opacity="0" stroke-miterlimit="4" stroke="rgb(140,140,140)" stroke-opacity="1" stroke-width="3" d=" M108.41500091552734,-83.2969970703125 C108.31999969482422,-68.42400360107422 106.33000183105469,-57.50699996948242 102.4469985961914,-50.54499816894531 C98.56199645996094,-43.58300018310547 92.5469970703125,-40.10200119018555 84.4010009765625,-40.10200119018555 C75.96900177001953,-40.10200119018555 69.81300354003906,-43.67599868774414 65.93000030517578,-50.82899856567383 C62.04499816894531,-57.97999954223633 60.104000091552734,-69.2770004272461 60.104000091552734,-84.71800231933594 C60.104000091552734,-84.71800231933594 60.104000091552734,-137.5749969482422 60.104000091552734,-137.5749969482422 C60.38800048828125,-151.4040069580078 62.400001525878906,-161.7310028076172 66.14299774169922,-168.55099487304688 C69.88400268554688,-175.37100219726562 75.8759994506836,-178.781005859375 84.11699676513672,-178.781005859375 C92.5469970703125,-178.781005859375 98.7040023803711,-175.10899353027344 102.58899688720703,-167.7689971923828 C106.47200012207031,-160.427001953125 108.41500091552734,-149.32000732421875 108.41500091552734,-134.44900512695312 C108.41500091552734,-134.44900512695312 108.41500091552734,-83.2969970703125 108.41500091552734,-83.2969970703125z M156.2989959716797,-128.19700622558594 C156.2989959716797,-156.0469970703125 149.9980010986328,-177.5959930419922 137.4010009765625,-192.84800720214844 C124.802001953125,-208.09800720214844 107.04000091552734,-215.72500610351562 84.11699676513672,-215.72500610351562 C61.19200134277344,-215.72500610351562 43.45600128173828,-208.14500427246094 30.905000686645508,-192.99000549316406 C18.351999282836914,-177.83299255371094 12.07800006866455,-156.28199768066406 12.07800006866455,-128.33900451660156 C12.07800006866455,-128.33900451660156 12.07800006866455,-90.54299926757812 12.07800006866455,-90.54299926757812 C12.07800006866455,-62.7869987487793 18.37700080871582,-41.28499984741211 30.97599983215332,-26.03499984741211 C43.573001861572266,-10.782999992370605 61.38199996948242,-3.1579999923706055 84.4010009765625,-3.1579999923706055 C107.22899627685547,-3.1579999923706055 124.91899871826172,-10.736000061035156 137.4720001220703,-25.89299964904785 C150.0229949951172,-41.04800033569336 156.2989959716797,-62.597999572753906 156.2989959716797,-90.54299926757812 C156.2989959716797,-90.54299926757812 156.2989959716797,-128.19700622558594 156.2989959716797,-128.19700622558594z"></path>
		</g>
	</g>
	<g mask="url(#__lottie_element_18)" transform="matrix(1,0,0,1,241.5,302.5)" opacity="0.1" style="display: block;">
		<g opacity="1" transform="matrix(0.9743700623512268,0.22495105862617493,-0.22495105862617493,0.9743700623512268,0,0)">
			<path fill="rgb(0,0,0)" fill-opacity="1" d=" M108.41500091552734,-83.2969970703125 C108.31999969482422,-68.42400360107422 106.33000183105469,-57.50699996948242 102.4469985961914,-50.54499816894531 C98.56199645996094,-43.58300018310547 92.5469970703125,-40.10200119018555 84.4010009765625,-40.10200119018555 C75.96900177001953,-40.10200119018555 69.81300354003906,-43.67599868774414 65.93000030517578,-50.82899856567383 C62.04499816894531,-57.97999954223633 60.104000091552734,-69.2770004272461 60.104000091552734,-84.71800231933594 C60.104000091552734,-84.71800231933594 60.104000091552734,-137.5749969482422 60.104000091552734,-137.5749969482422 C60.38800048828125,-151.4040069580078 62.400001525878906,-161.7310028076172 66.14299774169922,-168.55099487304688 C69.88400268554688,-175.37100219726562 75.8759994506836,-178.781005859375 84.11699676513672,-178.781005859375 C92.5469970703125,-178.781005859375 98.7040023803711,-175.10899353027344 102.58899688720703,-167.7689971923828 C106.47200012207031,-160.427001953125 108.41500091552734,-149.32000732421875 108.41500091552734,-134.44900512695312 C108.41500091552734,-134.44900512695312 108.41500091552734,-83.2969970703125 108.41500091552734,-83.2969970703125z M156.2989959716797,-128.19700622558594 C156.2989959716797,-156.0469970703125 149.9980010986328,-177.5959930419922 137.4010009765625,-192.84800720214844 C124.802001953125,-208.09800720214844 107.04000091552734,-215.72500610351562 84.11699676513672,-215.72500610351562 C61.19200134277344,-215.72500610351562 43.45600128173828,-208.14500427246094 30.905000686645508,-192.99000549316406 C18.351999282836914,-177.83299255371094 12.07800006866455,-156.28199768066406 12.07800006866455,-128.33900451660156 C12.07800006866455,-128.33900451660156 12.07800006866455,-90.54299926757812 12.07800006866455,-90.54299926757812 C12.07800006866455,-62.7869987487793 18.37700080871582,-41.28499984741211 30.97599983215332,-26.03499984741211 C43.573001861572266,-10.782999992370605 61.38199996948242,-3.1579999923706055 84.4010009765625,-3.1579999923706055 C107.22899627685547,-3.1579999923706055 124.91899871826172,-10.736000061035156 137.4720001220703,-25.89299964904785 C150.0229949951172,-41.04800033569336 156.2989959716797,-62.597999572753906 156.2989959716797,-90.54299926757812 C156.2989959716797,-90.54299926757812 156.2989959716797,-128.19700622558594 156.2989959716797,-128.19700622558594z"></path>
			<path stroke-linecap="butt" stroke-linejoin="miter" fill-opacity="0" stroke-miterlimit="4" stroke="rgb(0,0,0)" stroke-opacity="1" stroke-width="3" d=" M108.41500091552734,-83.2969970703125 C108.31999969482422,-68.42400360107422 106.33000183105469,-57.50699996948242 102.4469985961914,-50.54499816894531 C98.56199645996094,-43.58300018310547 92.5469970703125,-40.10200119018555 84.4010009765625,-40.10200119018555 C75.96900177001953,-40.10200119018555 69.81300354003906,-43.67599868774414 65.93000030517578,-50.82899856567383 C62.04499816894531,-57.97999954223633 60.104000091552734,-69.2770004272461 60.104000091552734,-84.71800231933594 C60.104000091552734,-84.71800231933594 60.104000091552734,-137.5749969482422 60.104000091552734,-137.5749969482422 C60.38800048828125,-151.4040069580078 62.400001525878906,-161.7310028076172 66.14299774169922,-168.55099487304688 C69.88400268554688,-175.37100219726562 75.8759994506836,-178.781005859375 84.11699676513672,-178.781005859375 C92.5469970703125,-178.781005859375 98.7040023803711,-175.10899353027344 102.58899688720703,-167.7689971923828 C106.47200012207031,-160.427001953125 108.41500091552734,-149.32000732421875 108.41500091552734,-134.44900512695312 C108.41500091552734,-134.44900512695312 108.41500091552734,-83.2969970703125 108.41500091552734,-83.2969970703125z M156.2989959716797,-128.19700622558594 C156.2989959716797,-156.0469970703125 149.9980010986328,-177.5959930419922 137.4010009765625,-192.84800720214844 C124.802001953125,-208.09800720214844 107.04000091552734,-215.72500610351562 84.11699676513672,-215.72500610351562 C61.19200134277344,-215.72500610351562 43.45600128173828,-208.14500427246094 30.905000686645508,-192.99000549316406 C18.351999282836914,-177.83299255371094 12.07800006866455,-156.28199768066406 12.07800006866455,-128.33900451660156 C12.07800006866455,-128.33900451660156 12.07800006866455,-90.54299926757812 12.07800006866455,-90.54299926757812 C12.07800006866455,-62.7869987487793 18.37700080871582,-41.28499984741211 30.97599983215332,-26.03499984741211 C43.573001861572266,-10.782999992370605 61.38199996948242,-3.1579999923706055 84.4010009765625,-3.1579999923706055 C107.22899627685547,-3.1579999923706055 124.91899871826172,-10.736000061035156 137.4720001220703,-25.89299964904785 C150.0229949951172,-41.04800033569336 156.2989959716797,-62.597999572753906 156.2989959716797,-90.54299926757812 C156.2989959716797,-90.54299926757812 156.2989959716797,-128.19700622558594 156.2989959716797,-128.19700622558594z"></path>
		</g>
	</g>
	<g id="4" mask="url(#__lottie_element_21)" transform="matrix(1,0,0,1,115.5,317)" opacity="1" style="display: block;">
		<g opacity="1" transform="matrix(0.874619722366333,-0.48480960726737976,0.48480960726737976,0.874619722366333,27.213294982910156,44.850162506103516)">
			<path fill="rgb(140,140,140)" fill-opacity="1" d=" M88.23799896240234,-145.6739959716797 C88.23799896240234,-145.6739959716797 91.22200012207031,-150.5050048828125 91.22200012207031,-150.5050048828125 C91.22200012207031,-150.5050048828125 91.22200012207031,-86.8489990234375 91.22200012207031,-86.8489990234375 C91.22200012207031,-86.8489990234375 53.99399948120117,-86.8489990234375 53.99399948120117,-86.8489990234375 C53.99399948120117,-86.8489990234375 88.23799896240234,-145.6739959716797 88.23799896240234,-145.6739959716797z M139.1060028076172,-212.88299560546875 C139.1060028076172,-212.88299560546875 91.22200012207031,-212.88299560546875 91.22200012207031,-212.88299560546875 C91.22200012207031,-212.88299560546875 91.22200012207031,-212.45700073242188 91.22200012207031,-212.45700073242188 C91.22200012207031,-212.45700073242188 8.383000373840332,-79.1760025024414 8.383000373840332,-79.1760025024414 C8.383000373840332,-79.1760025024414 11.225000381469727,-49.90599822998047 11.225000381469727,-49.90599822998047 C11.225000381469727,-49.90599822998047 91.22200012207031,-49.90599822998047 91.22200012207031,-49.90599822998047 C91.22200012207031,-49.90599822998047 91.22200012207031,-6 91.22200012207031,-6 C91.22200012207031,-6 139.1060028076172,-6 139.1060028076172,-6 C139.1060028076172,-6 139.1060028076172,-49.90599822998047 139.1060028076172,-49.90599822998047 C139.1060028076172,-49.90599822998047 160.13499450683594,-49.90599822998047 160.13499450683594,-49.90599822998047 C160.13499450683594,-49.90599822998047 160.13499450683594,-86.8489990234375 160.13499450683594,-86.8489990234375 C160.13499450683594,-86.8489990234375 139.1060028076172,-86.8489990234375 139.1060028076172,-86.8489990234375 C139.1060028076172,-86.8489990234375 139.1060028076172,-212.88299560546875 139.1060028076172,-212.88299560546875z"></path>
		</g>
	</g>
	<g mask="url(#__lottie_element_24)" transform="matrix(1,0,0,1,115.5,317)" opacity="0.1" style="display: block;">
		<g opacity="1" transform="matrix(0.874619722366333,-0.48480960726737976,0.48480960726737976,0.874619722366333,27.213294982910156,44.850162506103516)">
			<path fill="rgb(0,0,0)" fill-opacity="1" d=" M88.23799896240234,-145.6739959716797 C88.23799896240234,-145.6739959716797 91.22200012207031,-150.5050048828125 91.22200012207031,-150.5050048828125 C91.22200012207031,-150.5050048828125 91.22200012207031,-86.8489990234375 91.22200012207031,-86.8489990234375 C91.22200012207031,-86.8489990234375 53.99399948120117,-86.8489990234375 53.99399948120117,-86.8489990234375 C53.99399948120117,-86.8489990234375 88.23799896240234,-145.6739959716797 88.23799896240234,-145.6739959716797z M139.1060028076172,-212.88299560546875 C139.1060028076172,-212.88299560546875 91.22200012207031,-212.88299560546875 91.22200012207031,-212.88299560546875 C91.22200012207031,-212.88299560546875 91.22200012207031,-212.45700073242188 91.22200012207031,-212.45700073242188 C91.22200012207031,-212.45700073242188 8.383000373840332,-79.1760025024414 8.383000373840332,-79.1760025024414 C8.383000373840332,-79.1760025024414 11.225000381469727,-49.90599822998047 11.225000381469727,-49.90599822998047 C11.225000381469727,-49.90599822998047 91.22200012207031,-49.90599822998047 91.22200012207031,-49.90599822998047 C91.22200012207031,-49.90599822998047 91.22200012207031,-6 91.22200012207031,-6 C91.22200012207031,-6 139.1060028076172,-6 139.1060028076172,-6 C139.1060028076172,-6 139.1060028076172,-49.90599822998047 139.1060028076172,-49.90599822998047 C139.1060028076172,-49.90599822998047 160.13499450683594,-49.90599822998047 160.13499450683594,-49.90599822998047 C160.13499450683594,-49.90599822998047 160.13499450683594,-86.8489990234375 160.13499450683594,-86.8489990234375 C160.13499450683594,-86.8489990234375 139.1060028076172,-86.8489990234375 139.1060028076172,-86.8489990234375 C139.1060028076172,-86.8489990234375 139.1060028076172,-212.88299560546875 139.1060028076172,-212.88299560546875z"></path>
		</g>
	</g>
	<g id="4last" mask="url(#__lottie_element_27)" transform="matrix(1,0,0,1,443.5,317)" opacity="1" style="display: block;">
		<g opacity="1" transform="matrix(0.9876883625984192,0.15643446147441864,-0.15643446147441864,0.9876883625984192,-32.69956970214844,-4.992153167724609)">
			<path fill="rgb(140,140,140)" fill-opacity="1" d=" M88.23799896240234,-145.6739959716797 C88.23799896240234,-145.6739959716797 91.22200012207031,-150.5050048828125 91.22200012207031,-150.5050048828125 C91.22200012207031,-150.5050048828125 91.22200012207031,-86.8489990234375 91.22200012207031,-86.8489990234375 C91.22200012207031,-86.8489990234375 53.99399948120117,-86.8489990234375 53.99399948120117,-86.8489990234375 C53.99399948120117,-86.8489990234375 88.23799896240234,-145.6739959716797 88.23799896240234,-145.6739959716797z M139.1060028076172,-212.88299560546875 C139.1060028076172,-212.88299560546875 91.22200012207031,-212.88299560546875 91.22200012207031,-212.88299560546875 C91.22200012207031,-212.88299560546875 91.22200012207031,-212.45700073242188 91.22200012207031,-212.45700073242188 C91.22200012207031,-212.45700073242188 8.383000373840332,-79.1760025024414 8.383000373840332,-79.1760025024414 C8.383000373840332,-79.1760025024414 11.225000381469727,-49.90599822998047 11.225000381469727,-49.90599822998047 C11.225000381469727,-49.90599822998047 91.22200012207031,-49.90599822998047 91.22200012207031,-49.90599822998047 C91.22200012207031,-49.90599822998047 91.22200012207031,-6 91.22200012207031,-6 C91.22200012207031,-6 139.1060028076172,-6 139.1060028076172,-6 C139.1060028076172,-6 139.1060028076172,-49.90599822998047 139.1060028076172,-49.90599822998047 C139.1060028076172,-49.90599822998047 160.13499450683594,-49.90599822998047 160.13499450683594,-49.90599822998047 C160.13499450683594,-49.90599822998047 160.13499450683594,-86.8489990234375 160.13499450683594,-86.8489990234375 C160.13499450683594,-86.8489990234375 139.1060028076172,-86.8489990234375 139.1060028076172,-86.8489990234375 C139.1060028076172,-86.8489990234375 139.1060028076172,-212.88299560546875 139.1060028076172,-212.88299560546875z"></path>
		</g>
	</g>
	<g mask="url(#__lottie_element_30)" transform="matrix(1,0,0,1,443.5,317)" opacity="0.1" style="display: block;">
		<g opacity="1" transform="matrix(0.9876883625984192,0.15643446147441864,-0.15643446147441864,0.9876883625984192,-32.69956970214844,-4.992153167724609)">
			<path fill="rgb(0,0,0)" fill-opacity="1" d=" M88.23799896240234,-145.6739959716797 C88.23799896240234,-145.6739959716797 91.22200012207031,-150.5050048828125 91.22200012207031,-150.5050048828125 C91.22200012207031,-150.5050048828125 91.22200012207031,-86.8489990234375 91.22200012207031,-86.8489990234375 C91.22200012207031,-86.8489990234375 53.99399948120117,-86.8489990234375 53.99399948120117,-86.8489990234375 C53.99399948120117,-86.8489990234375 88.23799896240234,-145.6739959716797 88.23799896240234,-145.6739959716797z M139.1060028076172,-212.88299560546875 C139.1060028076172,-212.88299560546875 91.22200012207031,-212.88299560546875 91.22200012207031,-212.88299560546875 C91.22200012207031,-212.88299560546875 91.22200012207031,-212.45700073242188 91.22200012207031,-212.45700073242188 C91.22200012207031,-212.45700073242188 8.383000373840332,-79.1760025024414 8.383000373840332,-79.1760025024414 C8.383000373840332,-79.1760025024414 11.225000381469727,-49.90599822998047 11.225000381469727,-49.90599822998047 C11.225000381469727,-49.90599822998047 91.22200012207031,-49.90599822998047 91.22200012207031,-49.90599822998047 C91.22200012207031,-49.90599822998047 91.22200012207031,-6 91.22200012207031,-6 C91.22200012207031,-6 139.1060028076172,-6 139.1060028076172,-6 C139.1060028076172,-6 139.1060028076172,-49.90599822998047 139.1060028076172,-49.90599822998047 C139.1060028076172,-49.90599822998047 160.13499450683594,-49.90599822998047 160.13499450683594,-49.90599822998047 C160.13499450683594,-49.90599822998047 160.13499450683594,-86.8489990234375 160.13499450683594,-86.8489990234375 C160.13499450683594,-86.8489990234375 139.1060028076172,-86.8489990234375 139.1060028076172,-86.8489990234375 C139.1060028076172,-86.8489990234375 139.1060028076172,-212.88299560546875 139.1060028076172,-212.88299560546875z"></path>
		</g>
	</g>
	<g id="wind" transform="matrix(1,0,0,1,342,309)" opacity="1" style="display: none;">
		<g opacity="1" transform="matrix(1,0,0,1,0,0)">
			<path stroke-linecap="butt" stroke-linejoin="miter" fill-opacity="0" stroke-miterlimit="4" stroke="rgb(183,183,183)" stroke-opacity="1" stroke-width="3" d="M0 0"></path>
		</g>
	</g>
	<g id="wind" transform="matrix(1,0,0,1,342,159)" opacity="1" style="display: none;">
		<g opacity="1" transform="matrix(1,0,0,1,0,0)">
			<path stroke-linecap="butt" stroke-linejoin="miter" fill-opacity="0" stroke-miterlimit="4" stroke="rgb(183,183,183)" stroke-opacity="1" stroke-width="3" d="M0 0"></path>
		</g>
	</g>
	<g id="wind3" transform="matrix(1,0,0,1,532,229)" opacity="1" style="display: none;">
		<g opacity="1" transform="matrix(1,0,0,1,0,0)">
			<path stroke-linecap="butt" stroke-linejoin="miter" fill-opacity="0" stroke-miterlimit="4" stroke="rgb(255,255,255)" stroke-opacity="1" stroke-width="3" d=" M59.915000915527344,-130 C59.92499923706055,-130 59.933998107910156,-130 59.94300079345703,-130"></path>
		</g>
	</g>
	<g id="wind" transform="matrix(1,0,0,1,342,309)" opacity="1" style="display: none;">
		<g opacity="1" transform="matrix(1,0,0,1,0,0)">
			<path stroke-linecap="butt" stroke-linejoin="miter" fill-opacity="0" stroke-miterlimit="4" stroke="rgb(183,183,183)" stroke-opacity="1" stroke-width="3" d="M0 0"></path>
		</g>
	</g>
	<g id="wind4" transform="matrix(1,0,0,1,342,169)" opacity="1" style="display: none;">
		<g opacity="1" transform="matrix(1,0,0,1,0,0)">
			<path stroke-linecap="butt" stroke-linejoin="miter" fill-opacity="0" stroke-miterlimit="4" stroke="rgb(255,255,255)" stroke-opacity="1" stroke-width="3" d=" M59.94300079345703,-130 C59.95600128173828,-130 59.96799850463867,-130 59.97600173950195,-130"></path>
		</g>
	</g>
	<g id="wind5" transform="matrix(1,0,0,1,532,229)" opacity="1" style="display: none;">
		<g opacity="1" transform="matrix(1,0,0,1,0,0)">
			<path stroke-linecap="butt" stroke-linejoin="miter" fill-opacity="0" stroke-miterlimit="4" stroke="rgb(255,255,255)" stroke-opacity="1" stroke-width="3" d="M0 0"></path>
		</g>
	</g>
	<g id="page" mask="url(#__lottie_element_33)" transform="matrix(1,0,0,1,342,209)" opacity="1" style="display: block;">
		<g opacity="0.17" transform="matrix(1,0,0,1,0,0)">
			<path fill="rgb(0,0,0)" fill-opacity="1" d=" M35.625,-97.75 C35.625,-97.75 -12.75,-97.125 -12.75,-97.125 C-12.75,-97.125 -4.875,-85.375 -8.5,-78.625 C37.25,-82.25 46.125,-77.25 46.125,-77.25 C46.125,-77.25 35.625,-97.75 35.625,-97.75z"></path>
		</g>
		<g opacity="1" transform="matrix(1,0,0,1,0,0)">
		<g opacity="1" transform="matrix(1,0,0,1,57.75,-86)">
			<path fill="rgb(0,0,0)" fill-opacity="1" d=" M0,-4 C2.2076001167297363,-4 4,-2.2076001167297363 4,0 C4,2.2076001167297363 2.2076001167297363,4 0,4 C-2.2076001167297363,4 -4,2.2076001167297363 -4,0 C-4,-2.2076001167297363 -2.2076001167297363,-4 0,-4z"></path>
		</g>
		<g opacity="1" transform="matrix(1,0,0,1,0,0)">
			<path stroke-linecap="round" stroke-linejoin="miter" fill-opacity="0" stroke-miterlimit="4" stroke="rgb(0,0,0)" stroke-opacity="1" stroke-width="3" d=" M44,-133.75 C44,-133.75 60.5,-110.25 57.5,-87"></path>
		</g>
	</g>
	<g opacity="1" transform="matrix(1,0,0,1,0,0)">
		<g opacity="1" transform="matrix(1,0,0,1,-27.25,-86)">
			<path fill="rgb(0,0,0)" fill-opacity="1" d=" M0,-4 C2.2076001167297363,-4 4,-2.2076001167297363 4,0 C4,2.2076001167297363 2.2076001167297363,4 0,4 C-2.2076001167297363,4 -4,2.2076001167297363 -4,0 C-4,-2.2076001167297363 -2.2076001167297363,-4 0,-4z"></path>
		</g>
		<g opacity="1" transform="matrix(1,0,0,1,0,0)">
			<path stroke-linecap="round" stroke-linejoin="miter" fill-opacity="0" stroke-miterlimit="4" stroke="rgb(0,0,0)" stroke-opacity="1" stroke-width="3" d=" M-3,-131.25 C-3,-131.25 -24,-110.75 -27,-87.5"></path>
		</g>
	</g>
	<g opacity="1" transform="matrix(0.9013921618461609,-0.43300366401672363,0.43300366401672363,0.9013921618461609,37.13945007324219,-7.290412902832031)">
		<path stroke-linecap="round" stroke-linejoin="miter" fill-opacity="0" stroke-miterlimit="4" stroke="rgb(0,0,0)" stroke-opacity="1" stroke-width="3" d=" M1.75,-86.5 C1.75,-86.5 6.5,-80.25 4.375,-70.25 C9.375,-70.125 12.375,-69.625 12.375,-69.625"></path>
	</g>
	<g opacity="1" transform="matrix(0.9520317912101746,0.30599915981292725,-0.30599915981292725,0.9520317912101746,22.180484771728516,-2.307586669921875)">
		<path stroke-linecap="round" stroke-linejoin="miter" fill-opacity="0" stroke-miterlimit="4" stroke="rgb(0,0,0)" stroke-opacity="1" stroke-width="3" d=" M1.75,-86.5 C1.75,-86.5 6.5,-80.25 4.375,-70.25 C9.375,-70.125 12.375,-69.625 12.375,-69.625"></path>
	</g>
	<g opacity="1" transform="matrix(1,0,0,1,0,0)">
		<g opacity="1" transform="matrix(1,0,0,1,0,0)">
			<path fill="rgb(255,255,255)" fill-opacity="1" d=" M7.5,-162 C7.5,-162 -4.5,-152 -4.5,-152 C-4.5,-152 -13.5,-97 -13.5,-97 C-13.5,-97 -6.5,-99 1,-84 C25.5,-88.5 37.5,-83.5 52,-81.5 C51,-95.5 40.5,-98.5 40.5,-98.5 C40.5,-98.5 40.27199935913086,-119.4469985961914 47.959999084472656,-136.14300537109375 C51.665000915527344,-144.18899536132812 55.24135208129883,-147.6670684814453 64.0248031616211,-148.9153289794922 C53.966556549072266,-157.69471740722656 39.88903045654297,-159.3875732421875 29.76403045654297,-160.16357421875 C16.177030563354492,-161.20558166503906 7.5,-162 7.5,-162z"></path>
			<path stroke-linecap="round" stroke-linejoin="round" fill-opacity="0" stroke="rgb(140,140,140)" stroke-opacity="1" stroke-width="3" d=" M7.5,-162 C7.5,-162 -4.5,-152 -4.5,-152 C-4.5,-152 -13.5,-97 -13.5,-97 C-13.5,-97 -6.5,-99 1,-84 C25.5,-88.5 37.5,-83.5 52,-81.5 C51,-95.5 40.5,-98.5 40.5,-98.5 C40.5,-98.5 40.27199935913086,-119.4469985961914 47.959999084472656,-136.14300537109375 C51.665000915527344,-144.18899536132812 55.24135208129883,-147.6670684814453 64.0248031616211,-148.9153289794922 C53.966556549072266,-157.69471740722656 39.88903045654297,-159.3875732421875 29.76403045654297,-160.16357421875 C16.177030563354492,-161.20558166503906 7.5,-162 7.5,-162z"></path>
		</g>
		<g opacity="1" transform="matrix(1,0,0,1,0,0)">
			<path stroke-linecap="round" stroke-linejoin="round" fill-opacity="0" stroke="rgb(140,140,140)" stroke-opacity="1" stroke-width="3" d=" M-3.5,-150.625 C-3.5,-150.625 11.193164825439453,-150.4700164794922 11.193164825439453,-150.4700164794922 C11.193164825439453,-150.4700164794922 8,-161.5 8,-161.5"></path>
		</g>
		<g opacity="1" transform="matrix(1,0,0,1,0,0)">
			<path stroke-linecap="round" stroke-linejoin="miter" fill-opacity="0" stroke-miterlimit="4" stroke="rgb(140,140,140)" stroke-opacity="1" stroke-width="2" d=" M-3,-99.375 C-0.125,-100.25 5.875,-101.125 20.875,-99.375"></path>
		</g>
	</g>
	<g opacity="1" transform="matrix(0.9848077297210693,0.1736481785774231,-0.1736481785774231,0.9848077297210693,-21.633052825927734,-3.1579437255859375)"><g opacity="1" transform="matrix(1,0,0,1,12.5,-137)"><path fill="rgb(86,86,86)" fill-opacity="1" d=" M0,-4 C1.3797500133514404,-4 2.5,-2.2076001167297363 2.5,0 C2.5,2.2076001167297363 1.3797500133514404,4 0,4 C-1.3797500133514404,4 -2.5,2.2076001167297363 -2.5,0 C-2.5,-2.2076001167297363 -1.3797500133514404,-4 0,-4z"></path></g><g opacity="1" transform="matrix(1,0,0,1,13.125,-138.25)"><path fill="rgb(255,254,254)" fill-opacity="1" d=" M0,-1.5 C0.8278499841690063,-1.5 1.5,-0.8278499841690063 1.5,0 C1.5,0.8278499841690063 0.8278499841690063,1.5 0,1.5 C-0.8278499841690063,1.5 -1.5,0.8278499841690063 -1.5,0 C-1.5,-0.8278499841690063 -0.8278499841690063,-1.5 0,-1.5z"></path></g><g opacity="1" transform="matrix(1,0,0,1,0,0)"><path fill="rgb(255,254,254)" fill-opacity="1" d=" M8.4672212600708,-143.38882446289062 C8.4672212600708,-143.38882446289062 15.592940330505371,-142.64483642578125 17.717222213745117,-147.63882446289062"></path><path stroke-linecap="round" stroke-linejoin="miter" fill-opacity="0" stroke-miterlimit="4" stroke="rgb(140,140,140)" stroke-opacity="1" stroke-width="2" d=" M8.4672212600708,-143.38882446289062 C8.4672212600708,-143.38882446289062 15.592940330505371,-142.64483642578125 17.717222213745117,-147.63882446289062"></path></g></g><g opacity="1" transform="matrix(0.9848077297210693,0.1736481785774231,-0.1736481785774231,0.9848077297210693,-4.133052825927734,-1.1579437255859375)"><g opacity="1" transform="matrix(1,0,0,1,12.5,-137)"><path fill="rgb(86,86,86)" fill-opacity="1" d=" M0,-4 C1.3797500133514404,-4 2.5,-2.2076001167297363 2.5,0 C2.5,2.2076001167297363 1.3797500133514404,4 0,4 C-1.3797500133514404,4 -2.5,2.2076001167297363 -2.5,0 C-2.5,-2.2076001167297363 -1.3797500133514404,-4 0,-4z"></path></g><g opacity="1" transform="matrix(1,0,0,1,13.125,-138.25)"><path fill="rgb(255,254,254)" fill-opacity="1" d=" M0,-1.5 C0.8278499841690063,-1.5 1.5,-0.8278499841690063 1.5,0 C1.5,0.8278499841690063 0.8278499841690063,1.5 0,1.5 C-0.8278499841690063,1.5 -1.5,0.8278499841690063 -1.5,0 C-1.5,-0.8278499841690063 -0.8278499841690063,-1.5 0,-1.5z"></path></g><g opacity="1" transform="matrix(1,0,0,1,0,0)"><path fill="rgb(255,254,254)" fill-opacity="1" d=" M8.330221176147461,-147.0458221435547 C8.330221176147461,-147.0458221435547 12.194801330566406,-142.62158203125 17.007221221923828,-144.46682739257812"></path><path stroke-linecap="round" stroke-linejoin="miter" fill-opacity="0" stroke-miterlimit="4" stroke="rgb(140,140,140)" stroke-opacity="1" stroke-width="2" d=" M8.330221176147461,-147.0458221435547 C8.330221176147461,-147.0458221435547 12.194801330566406,-142.62158203125 17.007221221923828,-144.46682739257812"></path></g></g><g opacity="1" transform="matrix(1,0,0,1,0,0)"><path stroke-linecap="round" stroke-linejoin="miter" fill-opacity="0" stroke-miterlimit="4" stroke="rgb(140,140,140)" stroke-opacity="1" stroke-width="2" d=" M14.375,-121.125 C14.375,-121.125 26.875,-128 28,-120.125"></path></g><g opacity="1" transform="matrix(1,0,0,1,0,0)"><path stroke-linecap="round" stroke-linejoin="miter" fill-opacity="0" stroke-miterlimit="4" stroke="rgb(105,169,223)" stroke-opacity="1" stroke-width="0.9155744148095357" d=" M14.37600040435791,-131.5500030517578 C14.277999877929688,-131.52699279785156 14.182999610900879,-131.50399780273438 14.092000007629395,-131.48199462890625"></path></g><g opacity="1" transform="matrix(1,0,0,1,0,0)"><path stroke-linecap="round" stroke-linejoin="miter" fill-opacity="0" stroke-miterlimit="4" stroke="rgb(105,169,223)" stroke-opacity="1" stroke-width="0" d=" M16.25,-132 C16.25,-132 16.141000747680664,-131.9739990234375 15.965999603271484,-131.9320068359375"></path></g></g><g id="dust" transform="matrix(1,0,0,1,342,209)" opacity="1" style="display: block;"><g opacity="1" transform="matrix(1,0,0,1,0,0)"><path stroke-linecap="round" stroke-linejoin="miter" fill-opacity="0" stroke-miterlimit="4" stroke="rgb(80,80,80)" stroke-opacity="1" stroke-width="4.872022059083942" d=" M-178.81500244140625,-38.61600112915039 C-178.51499938964844,-38.74399948120117 -178.21600341796875,-38.87200164794922 -177.91700744628906,-39.000999450683594"></path></g></g><g id="dust" transform="matrix(1,0,0,1,372,159)" opacity="1" style="display: none;"><g opacity="1" transform="matrix(1,0,0,1,0,0)"><path stroke-linecap="round" stroke-linejoin="miter" fill-opacity="0" stroke-miterlimit="4" stroke="rgb(80,80,80)" stroke-opacity="1" stroke-width="0" d=" M310.2690124511719,-44.35499954223633 C310.75299072265625,-44.77299880981445 311,-45 311,-45"></path></g></g><g id="dust2" transform="matrix(1,0,0,1,342,159)" opacity="1" style="display: block;"><g opacity="1" transform="matrix(1,0,0,1,0,0)"><path stroke-linecap="round" stroke-linejoin="miter" fill-opacity="0" stroke-miterlimit="4" stroke="rgb(255,255,255)" stroke-opacity="1" stroke-width="7.988839665709454" d=" M-10.013999938964844,49.68299865722656 C-9.696999549865723,49.63800048828125 -9.378000259399414,49.59400177001953 -9.059000015258789,49.54999923706055"></path></g></g><g id="dust3" transform="matrix(1,0,0,1,342,79)" opacity="1" style="display: none;"><g opacity="1" transform="matrix(1,0,0,1,0,0)"><path stroke-linecap="round" stroke-linejoin="miter" fill-opacity="0" stroke-miterlimit="4" stroke="rgb(255,255,255)" stroke-opacity="1" stroke-width="0" d=" M275.34600830078125,77.29100036621094 C275.56500244140625,77.5260009765625 275.7829895019531,77.76300048828125 276,78"></path></g></g><g id="ground" transform="matrix(1,0,0,1,342,209)" opacity="1" style="display: block;"><g opacity="1" transform="matrix(1,0,0,1,0,0)"><path stroke-linecap="round" stroke-linejoin="miter" fill-opacity="0" stroke-miterlimit="4" stroke="rgb(140,140,140)" stroke-opacity="1" stroke-width="3" d=" M-283,84 C-283,84 292,84 292,84 M-293.5,96.5 C-293.5,96.5 -177,96.5 -177,96.5 M157,102 C157,102 207,102 207,102 M-203.5,114.5 C-203.5,114.5 -169,114.5 -169,114.5 M252,102.5 C252,102.5 310,102.5 310,102.5 M69.5,115.5 C69.5,115.5 177.5,115.5 177.5,115.5"></path></g><g opacity="0.12" transform="matrix(1,0,0,1,0,0)"><path fill="rgb(0,0,0)" fill-opacity="1" d=" M292,84 C292,84 -283,84 -283,84 C-283,84 -202,98 -9,98 C184,98 292,84 292,84z"></path></g></g>
</g>
</svg>